%TF.GenerationSoftware,KiCad,Pcbnew,9.0.6*%
%TF.CreationDate,2026-05-13T13:29:49+02:00*%
%TF.ProjectId,precond,70726563-6f6e-4642-9e6b-696361645f70,rev?*%
%TF.SameCoordinates,Original*%
%TF.FileFunction,Legend,Top*%
%TF.FilePolarity,Positive*%
%FSLAX46Y46*%
G04 Gerber Fmt 4.6, Leading zero omitted, Abs format (unit mm)*
G04 Created by KiCad (PCBNEW 9.0.6) date 2026-05-13 13:29:49*
%MOMM*%
%LPD*%
G01*
G04 APERTURE LIST*
%ADD10C,0.300000*%
%ADD11C,0.150000*%
%ADD12C,0.120000*%
G04 APERTURE END LIST*
D10*
X37554510Y-48800828D02*
X37554510Y-47300828D01*
X37554510Y-47300828D02*
X38125939Y-47300828D01*
X38125939Y-47300828D02*
X38268796Y-47372257D01*
X38268796Y-47372257D02*
X38340225Y-47443685D01*
X38340225Y-47443685D02*
X38411653Y-47586542D01*
X38411653Y-47586542D02*
X38411653Y-47800828D01*
X38411653Y-47800828D02*
X38340225Y-47943685D01*
X38340225Y-47943685D02*
X38268796Y-48015114D01*
X38268796Y-48015114D02*
X38125939Y-48086542D01*
X38125939Y-48086542D02*
X37554510Y-48086542D01*
X39054510Y-48800828D02*
X39054510Y-47800828D01*
X39054510Y-48086542D02*
X39125939Y-47943685D01*
X39125939Y-47943685D02*
X39197368Y-47872257D01*
X39197368Y-47872257D02*
X39340225Y-47800828D01*
X39340225Y-47800828D02*
X39483082Y-47800828D01*
X40554510Y-48729400D02*
X40411653Y-48800828D01*
X40411653Y-48800828D02*
X40125939Y-48800828D01*
X40125939Y-48800828D02*
X39983081Y-48729400D01*
X39983081Y-48729400D02*
X39911653Y-48586542D01*
X39911653Y-48586542D02*
X39911653Y-48015114D01*
X39911653Y-48015114D02*
X39983081Y-47872257D01*
X39983081Y-47872257D02*
X40125939Y-47800828D01*
X40125939Y-47800828D02*
X40411653Y-47800828D01*
X40411653Y-47800828D02*
X40554510Y-47872257D01*
X40554510Y-47872257D02*
X40625939Y-48015114D01*
X40625939Y-48015114D02*
X40625939Y-48157971D01*
X40625939Y-48157971D02*
X39911653Y-48300828D01*
X41911653Y-48729400D02*
X41768795Y-48800828D01*
X41768795Y-48800828D02*
X41483081Y-48800828D01*
X41483081Y-48800828D02*
X41340224Y-48729400D01*
X41340224Y-48729400D02*
X41268795Y-48657971D01*
X41268795Y-48657971D02*
X41197367Y-48515114D01*
X41197367Y-48515114D02*
X41197367Y-48086542D01*
X41197367Y-48086542D02*
X41268795Y-47943685D01*
X41268795Y-47943685D02*
X41340224Y-47872257D01*
X41340224Y-47872257D02*
X41483081Y-47800828D01*
X41483081Y-47800828D02*
X41768795Y-47800828D01*
X41768795Y-47800828D02*
X41911653Y-47872257D01*
X42768795Y-48800828D02*
X42625938Y-48729400D01*
X42625938Y-48729400D02*
X42554509Y-48657971D01*
X42554509Y-48657971D02*
X42483081Y-48515114D01*
X42483081Y-48515114D02*
X42483081Y-48086542D01*
X42483081Y-48086542D02*
X42554509Y-47943685D01*
X42554509Y-47943685D02*
X42625938Y-47872257D01*
X42625938Y-47872257D02*
X42768795Y-47800828D01*
X42768795Y-47800828D02*
X42983081Y-47800828D01*
X42983081Y-47800828D02*
X43125938Y-47872257D01*
X43125938Y-47872257D02*
X43197367Y-47943685D01*
X43197367Y-47943685D02*
X43268795Y-48086542D01*
X43268795Y-48086542D02*
X43268795Y-48515114D01*
X43268795Y-48515114D02*
X43197367Y-48657971D01*
X43197367Y-48657971D02*
X43125938Y-48729400D01*
X43125938Y-48729400D02*
X42983081Y-48800828D01*
X42983081Y-48800828D02*
X42768795Y-48800828D01*
X43911652Y-47800828D02*
X43911652Y-48800828D01*
X43911652Y-47943685D02*
X43983081Y-47872257D01*
X43983081Y-47872257D02*
X44125938Y-47800828D01*
X44125938Y-47800828D02*
X44340224Y-47800828D01*
X44340224Y-47800828D02*
X44483081Y-47872257D01*
X44483081Y-47872257D02*
X44554510Y-48015114D01*
X44554510Y-48015114D02*
X44554510Y-48800828D01*
X45911653Y-48800828D02*
X45911653Y-47300828D01*
X45911653Y-48729400D02*
X45768795Y-48800828D01*
X45768795Y-48800828D02*
X45483081Y-48800828D01*
X45483081Y-48800828D02*
X45340224Y-48729400D01*
X45340224Y-48729400D02*
X45268795Y-48657971D01*
X45268795Y-48657971D02*
X45197367Y-48515114D01*
X45197367Y-48515114D02*
X45197367Y-48086542D01*
X45197367Y-48086542D02*
X45268795Y-47943685D01*
X45268795Y-47943685D02*
X45340224Y-47872257D01*
X45340224Y-47872257D02*
X45483081Y-47800828D01*
X45483081Y-47800828D02*
X45768795Y-47800828D01*
X45768795Y-47800828D02*
X45911653Y-47872257D01*
X46625938Y-48800828D02*
X46625938Y-47800828D01*
X46625938Y-47300828D02*
X46554510Y-47372257D01*
X46554510Y-47372257D02*
X46625938Y-47443685D01*
X46625938Y-47443685D02*
X46697367Y-47372257D01*
X46697367Y-47372257D02*
X46625938Y-47300828D01*
X46625938Y-47300828D02*
X46625938Y-47443685D01*
X47125939Y-47800828D02*
X47697367Y-47800828D01*
X47340224Y-47300828D02*
X47340224Y-48586542D01*
X47340224Y-48586542D02*
X47411653Y-48729400D01*
X47411653Y-48729400D02*
X47554510Y-48800828D01*
X47554510Y-48800828D02*
X47697367Y-48800828D01*
X48197367Y-48800828D02*
X48197367Y-47800828D01*
X48197367Y-47300828D02*
X48125939Y-47372257D01*
X48125939Y-47372257D02*
X48197367Y-47443685D01*
X48197367Y-47443685D02*
X48268796Y-47372257D01*
X48268796Y-47372257D02*
X48197367Y-47300828D01*
X48197367Y-47300828D02*
X48197367Y-47443685D01*
X49125939Y-48800828D02*
X48983082Y-48729400D01*
X48983082Y-48729400D02*
X48911653Y-48657971D01*
X48911653Y-48657971D02*
X48840225Y-48515114D01*
X48840225Y-48515114D02*
X48840225Y-48086542D01*
X48840225Y-48086542D02*
X48911653Y-47943685D01*
X48911653Y-47943685D02*
X48983082Y-47872257D01*
X48983082Y-47872257D02*
X49125939Y-47800828D01*
X49125939Y-47800828D02*
X49340225Y-47800828D01*
X49340225Y-47800828D02*
X49483082Y-47872257D01*
X49483082Y-47872257D02*
X49554511Y-47943685D01*
X49554511Y-47943685D02*
X49625939Y-48086542D01*
X49625939Y-48086542D02*
X49625939Y-48515114D01*
X49625939Y-48515114D02*
X49554511Y-48657971D01*
X49554511Y-48657971D02*
X49483082Y-48729400D01*
X49483082Y-48729400D02*
X49340225Y-48800828D01*
X49340225Y-48800828D02*
X49125939Y-48800828D01*
X50268796Y-47800828D02*
X50268796Y-48800828D01*
X50268796Y-47943685D02*
X50340225Y-47872257D01*
X50340225Y-47872257D02*
X50483082Y-47800828D01*
X50483082Y-47800828D02*
X50697368Y-47800828D01*
X50697368Y-47800828D02*
X50840225Y-47872257D01*
X50840225Y-47872257D02*
X50911654Y-48015114D01*
X50911654Y-48015114D02*
X50911654Y-48800828D01*
X51625939Y-48800828D02*
X51625939Y-47800828D01*
X51625939Y-47300828D02*
X51554511Y-47372257D01*
X51554511Y-47372257D02*
X51625939Y-47443685D01*
X51625939Y-47443685D02*
X51697368Y-47372257D01*
X51697368Y-47372257D02*
X51625939Y-47300828D01*
X51625939Y-47300828D02*
X51625939Y-47443685D01*
X52125940Y-47800828D02*
X52697368Y-47800828D01*
X52340225Y-48800828D02*
X52340225Y-47515114D01*
X52340225Y-47515114D02*
X52411654Y-47372257D01*
X52411654Y-47372257D02*
X52554511Y-47300828D01*
X52554511Y-47300828D02*
X52697368Y-47300828D01*
X53197368Y-48800828D02*
X53197368Y-47800828D01*
X53197368Y-47300828D02*
X53125940Y-47372257D01*
X53125940Y-47372257D02*
X53197368Y-47443685D01*
X53197368Y-47443685D02*
X53268797Y-47372257D01*
X53268797Y-47372257D02*
X53197368Y-47300828D01*
X53197368Y-47300828D02*
X53197368Y-47443685D01*
X54554512Y-48729400D02*
X54411654Y-48800828D01*
X54411654Y-48800828D02*
X54125940Y-48800828D01*
X54125940Y-48800828D02*
X53983083Y-48729400D01*
X53983083Y-48729400D02*
X53911654Y-48657971D01*
X53911654Y-48657971D02*
X53840226Y-48515114D01*
X53840226Y-48515114D02*
X53840226Y-48086542D01*
X53840226Y-48086542D02*
X53911654Y-47943685D01*
X53911654Y-47943685D02*
X53983083Y-47872257D01*
X53983083Y-47872257D02*
X54125940Y-47800828D01*
X54125940Y-47800828D02*
X54411654Y-47800828D01*
X54411654Y-47800828D02*
X54554512Y-47872257D01*
X55840226Y-48800828D02*
X55840226Y-48015114D01*
X55840226Y-48015114D02*
X55768797Y-47872257D01*
X55768797Y-47872257D02*
X55625940Y-47800828D01*
X55625940Y-47800828D02*
X55340226Y-47800828D01*
X55340226Y-47800828D02*
X55197368Y-47872257D01*
X55840226Y-48729400D02*
X55697368Y-48800828D01*
X55697368Y-48800828D02*
X55340226Y-48800828D01*
X55340226Y-48800828D02*
X55197368Y-48729400D01*
X55197368Y-48729400D02*
X55125940Y-48586542D01*
X55125940Y-48586542D02*
X55125940Y-48443685D01*
X55125940Y-48443685D02*
X55197368Y-48300828D01*
X55197368Y-48300828D02*
X55340226Y-48229400D01*
X55340226Y-48229400D02*
X55697368Y-48229400D01*
X55697368Y-48229400D02*
X55840226Y-48157971D01*
X56340226Y-47800828D02*
X56911654Y-47800828D01*
X56554511Y-47300828D02*
X56554511Y-48586542D01*
X56554511Y-48586542D02*
X56625940Y-48729400D01*
X56625940Y-48729400D02*
X56768797Y-48800828D01*
X56768797Y-48800828D02*
X56911654Y-48800828D01*
X57625940Y-48800828D02*
X57483083Y-48729400D01*
X57483083Y-48729400D02*
X57411654Y-48657971D01*
X57411654Y-48657971D02*
X57340226Y-48515114D01*
X57340226Y-48515114D02*
X57340226Y-48086542D01*
X57340226Y-48086542D02*
X57411654Y-47943685D01*
X57411654Y-47943685D02*
X57483083Y-47872257D01*
X57483083Y-47872257D02*
X57625940Y-47800828D01*
X57625940Y-47800828D02*
X57840226Y-47800828D01*
X57840226Y-47800828D02*
X57983083Y-47872257D01*
X57983083Y-47872257D02*
X58054512Y-47943685D01*
X58054512Y-47943685D02*
X58125940Y-48086542D01*
X58125940Y-48086542D02*
X58125940Y-48515114D01*
X58125940Y-48515114D02*
X58054512Y-48657971D01*
X58054512Y-48657971D02*
X57983083Y-48729400D01*
X57983083Y-48729400D02*
X57840226Y-48800828D01*
X57840226Y-48800828D02*
X57625940Y-48800828D01*
X58768797Y-48800828D02*
X58768797Y-47800828D01*
X58768797Y-48086542D02*
X58840226Y-47943685D01*
X58840226Y-47943685D02*
X58911655Y-47872257D01*
X58911655Y-47872257D02*
X59054512Y-47800828D01*
X59054512Y-47800828D02*
X59197369Y-47800828D01*
X60911654Y-48800828D02*
X61197368Y-48800828D01*
X61197368Y-48800828D02*
X61340225Y-48729400D01*
X61340225Y-48729400D02*
X61411654Y-48657971D01*
X61411654Y-48657971D02*
X61554511Y-48443685D01*
X61554511Y-48443685D02*
X61625940Y-48157971D01*
X61625940Y-48157971D02*
X61625940Y-47586542D01*
X61625940Y-47586542D02*
X61554511Y-47443685D01*
X61554511Y-47443685D02*
X61483083Y-47372257D01*
X61483083Y-47372257D02*
X61340225Y-47300828D01*
X61340225Y-47300828D02*
X61054511Y-47300828D01*
X61054511Y-47300828D02*
X60911654Y-47372257D01*
X60911654Y-47372257D02*
X60840225Y-47443685D01*
X60840225Y-47443685D02*
X60768797Y-47586542D01*
X60768797Y-47586542D02*
X60768797Y-47943685D01*
X60768797Y-47943685D02*
X60840225Y-48086542D01*
X60840225Y-48086542D02*
X60911654Y-48157971D01*
X60911654Y-48157971D02*
X61054511Y-48229400D01*
X61054511Y-48229400D02*
X61340225Y-48229400D01*
X61340225Y-48229400D02*
X61483083Y-48157971D01*
X61483083Y-48157971D02*
X61554511Y-48086542D01*
X61554511Y-48086542D02*
X61625940Y-47943685D01*
X62554511Y-47300828D02*
X62697368Y-47300828D01*
X62697368Y-47300828D02*
X62840225Y-47372257D01*
X62840225Y-47372257D02*
X62911654Y-47443685D01*
X62911654Y-47443685D02*
X62983082Y-47586542D01*
X62983082Y-47586542D02*
X63054511Y-47872257D01*
X63054511Y-47872257D02*
X63054511Y-48229400D01*
X63054511Y-48229400D02*
X62983082Y-48515114D01*
X62983082Y-48515114D02*
X62911654Y-48657971D01*
X62911654Y-48657971D02*
X62840225Y-48729400D01*
X62840225Y-48729400D02*
X62697368Y-48800828D01*
X62697368Y-48800828D02*
X62554511Y-48800828D01*
X62554511Y-48800828D02*
X62411654Y-48729400D01*
X62411654Y-48729400D02*
X62340225Y-48657971D01*
X62340225Y-48657971D02*
X62268796Y-48515114D01*
X62268796Y-48515114D02*
X62197368Y-48229400D01*
X62197368Y-48229400D02*
X62197368Y-47872257D01*
X62197368Y-47872257D02*
X62268796Y-47586542D01*
X62268796Y-47586542D02*
X62340225Y-47443685D01*
X62340225Y-47443685D02*
X62411654Y-47372257D01*
X62411654Y-47372257D02*
X62554511Y-47300828D01*
X63983082Y-47300828D02*
X64125939Y-47300828D01*
X64125939Y-47300828D02*
X64268796Y-47372257D01*
X64268796Y-47372257D02*
X64340225Y-47443685D01*
X64340225Y-47443685D02*
X64411653Y-47586542D01*
X64411653Y-47586542D02*
X64483082Y-47872257D01*
X64483082Y-47872257D02*
X64483082Y-48229400D01*
X64483082Y-48229400D02*
X64411653Y-48515114D01*
X64411653Y-48515114D02*
X64340225Y-48657971D01*
X64340225Y-48657971D02*
X64268796Y-48729400D01*
X64268796Y-48729400D02*
X64125939Y-48800828D01*
X64125939Y-48800828D02*
X63983082Y-48800828D01*
X63983082Y-48800828D02*
X63840225Y-48729400D01*
X63840225Y-48729400D02*
X63768796Y-48657971D01*
X63768796Y-48657971D02*
X63697367Y-48515114D01*
X63697367Y-48515114D02*
X63625939Y-48229400D01*
X63625939Y-48229400D02*
X63625939Y-47872257D01*
X63625939Y-47872257D02*
X63697367Y-47586542D01*
X63697367Y-47586542D02*
X63768796Y-47443685D01*
X63768796Y-47443685D02*
X63840225Y-47372257D01*
X63840225Y-47372257D02*
X63983082Y-47300828D01*
X65411653Y-47300828D02*
X65554510Y-47300828D01*
X65554510Y-47300828D02*
X65697367Y-47372257D01*
X65697367Y-47372257D02*
X65768796Y-47443685D01*
X65768796Y-47443685D02*
X65840224Y-47586542D01*
X65840224Y-47586542D02*
X65911653Y-47872257D01*
X65911653Y-47872257D02*
X65911653Y-48229400D01*
X65911653Y-48229400D02*
X65840224Y-48515114D01*
X65840224Y-48515114D02*
X65768796Y-48657971D01*
X65768796Y-48657971D02*
X65697367Y-48729400D01*
X65697367Y-48729400D02*
X65554510Y-48800828D01*
X65554510Y-48800828D02*
X65411653Y-48800828D01*
X65411653Y-48800828D02*
X65268796Y-48729400D01*
X65268796Y-48729400D02*
X65197367Y-48657971D01*
X65197367Y-48657971D02*
X65125938Y-48515114D01*
X65125938Y-48515114D02*
X65054510Y-48229400D01*
X65054510Y-48229400D02*
X65054510Y-47872257D01*
X65054510Y-47872257D02*
X65125938Y-47586542D01*
X65125938Y-47586542D02*
X65197367Y-47443685D01*
X65197367Y-47443685D02*
X65268796Y-47372257D01*
X65268796Y-47372257D02*
X65411653Y-47300828D01*
X37483082Y-50957341D02*
X38197368Y-50957341D01*
X37340225Y-51385912D02*
X37840225Y-49885912D01*
X37840225Y-49885912D02*
X38340225Y-51385912D01*
X38840224Y-51385912D02*
X38840224Y-49885912D01*
X39697367Y-51385912D02*
X39054510Y-50528769D01*
X39697367Y-49885912D02*
X38840224Y-50743055D01*
X42268796Y-49957341D02*
X42125939Y-49885912D01*
X42125939Y-49885912D02*
X41911653Y-49885912D01*
X41911653Y-49885912D02*
X41697367Y-49957341D01*
X41697367Y-49957341D02*
X41554510Y-50100198D01*
X41554510Y-50100198D02*
X41483081Y-50243055D01*
X41483081Y-50243055D02*
X41411653Y-50528769D01*
X41411653Y-50528769D02*
X41411653Y-50743055D01*
X41411653Y-50743055D02*
X41483081Y-51028769D01*
X41483081Y-51028769D02*
X41554510Y-51171626D01*
X41554510Y-51171626D02*
X41697367Y-51314484D01*
X41697367Y-51314484D02*
X41911653Y-51385912D01*
X41911653Y-51385912D02*
X42054510Y-51385912D01*
X42054510Y-51385912D02*
X42268796Y-51314484D01*
X42268796Y-51314484D02*
X42340224Y-51243055D01*
X42340224Y-51243055D02*
X42340224Y-50743055D01*
X42340224Y-50743055D02*
X42054510Y-50743055D01*
X43411653Y-49885912D02*
X43411653Y-50957341D01*
X43411653Y-50957341D02*
X43340224Y-51171626D01*
X43340224Y-51171626D02*
X43197367Y-51314484D01*
X43197367Y-51314484D02*
X42983081Y-51385912D01*
X42983081Y-51385912D02*
X42840224Y-51385912D01*
X45983081Y-51385912D02*
X45268795Y-51385912D01*
X45268795Y-51385912D02*
X45268795Y-49885912D01*
X46411653Y-51314484D02*
X46625939Y-51385912D01*
X46625939Y-51385912D02*
X46983081Y-51385912D01*
X46983081Y-51385912D02*
X47125939Y-51314484D01*
X47125939Y-51314484D02*
X47197367Y-51243055D01*
X47197367Y-51243055D02*
X47268796Y-51100198D01*
X47268796Y-51100198D02*
X47268796Y-50957341D01*
X47268796Y-50957341D02*
X47197367Y-50814484D01*
X47197367Y-50814484D02*
X47125939Y-50743055D01*
X47125939Y-50743055D02*
X46983081Y-50671626D01*
X46983081Y-50671626D02*
X46697367Y-50600198D01*
X46697367Y-50600198D02*
X46554510Y-50528769D01*
X46554510Y-50528769D02*
X46483081Y-50457341D01*
X46483081Y-50457341D02*
X46411653Y-50314484D01*
X46411653Y-50314484D02*
X46411653Y-50171626D01*
X46411653Y-50171626D02*
X46483081Y-50028769D01*
X46483081Y-50028769D02*
X46554510Y-49957341D01*
X46554510Y-49957341D02*
X46697367Y-49885912D01*
X46697367Y-49885912D02*
X47054510Y-49885912D01*
X47054510Y-49885912D02*
X47268796Y-49957341D01*
X48840224Y-49885912D02*
X49340224Y-51385912D01*
X49340224Y-51385912D02*
X49840224Y-49885912D01*
X50340223Y-51385912D02*
X50340223Y-49885912D01*
X50340223Y-49885912D02*
X50840223Y-50957341D01*
X50840223Y-50957341D02*
X51340223Y-49885912D01*
X51340223Y-49885912D02*
X51340223Y-51385912D01*
X53483081Y-50671626D02*
X53483081Y-51385912D01*
X52983081Y-49885912D02*
X53483081Y-50671626D01*
X53483081Y-50671626D02*
X53983081Y-49885912D01*
X54483080Y-51385912D02*
X54483080Y-49885912D01*
X54483080Y-49885912D02*
X55054509Y-49885912D01*
X55054509Y-49885912D02*
X55197366Y-49957341D01*
X55197366Y-49957341D02*
X55268795Y-50028769D01*
X55268795Y-50028769D02*
X55340223Y-50171626D01*
X55340223Y-50171626D02*
X55340223Y-50385912D01*
X55340223Y-50385912D02*
X55268795Y-50528769D01*
X55268795Y-50528769D02*
X55197366Y-50600198D01*
X55197366Y-50600198D02*
X55054509Y-50671626D01*
X55054509Y-50671626D02*
X54483080Y-50671626D01*
X37983082Y-54372257D02*
X37911653Y-54300828D01*
X37911653Y-54300828D02*
X37768796Y-54086542D01*
X37768796Y-54086542D02*
X37697368Y-53943685D01*
X37697368Y-53943685D02*
X37625939Y-53729400D01*
X37625939Y-53729400D02*
X37554510Y-53372257D01*
X37554510Y-53372257D02*
X37554510Y-53086542D01*
X37554510Y-53086542D02*
X37625939Y-52729400D01*
X37625939Y-52729400D02*
X37697368Y-52515114D01*
X37697368Y-52515114D02*
X37768796Y-52372257D01*
X37768796Y-52372257D02*
X37911653Y-52157971D01*
X37911653Y-52157971D02*
X37983082Y-52086542D01*
X39411653Y-53657971D02*
X39340225Y-53729400D01*
X39340225Y-53729400D02*
X39125939Y-53800828D01*
X39125939Y-53800828D02*
X38983082Y-53800828D01*
X38983082Y-53800828D02*
X38768796Y-53729400D01*
X38768796Y-53729400D02*
X38625939Y-53586542D01*
X38625939Y-53586542D02*
X38554510Y-53443685D01*
X38554510Y-53443685D02*
X38483082Y-53157971D01*
X38483082Y-53157971D02*
X38483082Y-52943685D01*
X38483082Y-52943685D02*
X38554510Y-52657971D01*
X38554510Y-52657971D02*
X38625939Y-52515114D01*
X38625939Y-52515114D02*
X38768796Y-52372257D01*
X38768796Y-52372257D02*
X38983082Y-52300828D01*
X38983082Y-52300828D02*
X39125939Y-52300828D01*
X39125939Y-52300828D02*
X39340225Y-52372257D01*
X39340225Y-52372257D02*
X39411653Y-52443685D01*
X39911653Y-54372257D02*
X39983082Y-54300828D01*
X39983082Y-54300828D02*
X40125939Y-54086542D01*
X40125939Y-54086542D02*
X40197368Y-53943685D01*
X40197368Y-53943685D02*
X40268796Y-53729400D01*
X40268796Y-53729400D02*
X40340225Y-53372257D01*
X40340225Y-53372257D02*
X40340225Y-53086542D01*
X40340225Y-53086542D02*
X40268796Y-52729400D01*
X40268796Y-52729400D02*
X40197368Y-52515114D01*
X40197368Y-52515114D02*
X40125939Y-52372257D01*
X40125939Y-52372257D02*
X39983082Y-52157971D01*
X39983082Y-52157971D02*
X39911653Y-52086542D01*
X42125939Y-52443685D02*
X42197367Y-52372257D01*
X42197367Y-52372257D02*
X42340225Y-52300828D01*
X42340225Y-52300828D02*
X42697367Y-52300828D01*
X42697367Y-52300828D02*
X42840225Y-52372257D01*
X42840225Y-52372257D02*
X42911653Y-52443685D01*
X42911653Y-52443685D02*
X42983082Y-52586542D01*
X42983082Y-52586542D02*
X42983082Y-52729400D01*
X42983082Y-52729400D02*
X42911653Y-52943685D01*
X42911653Y-52943685D02*
X42054510Y-53800828D01*
X42054510Y-53800828D02*
X42983082Y-53800828D01*
X43911653Y-52300828D02*
X44054510Y-52300828D01*
X44054510Y-52300828D02*
X44197367Y-52372257D01*
X44197367Y-52372257D02*
X44268796Y-52443685D01*
X44268796Y-52443685D02*
X44340224Y-52586542D01*
X44340224Y-52586542D02*
X44411653Y-52872257D01*
X44411653Y-52872257D02*
X44411653Y-53229400D01*
X44411653Y-53229400D02*
X44340224Y-53515114D01*
X44340224Y-53515114D02*
X44268796Y-53657971D01*
X44268796Y-53657971D02*
X44197367Y-53729400D01*
X44197367Y-53729400D02*
X44054510Y-53800828D01*
X44054510Y-53800828D02*
X43911653Y-53800828D01*
X43911653Y-53800828D02*
X43768796Y-53729400D01*
X43768796Y-53729400D02*
X43697367Y-53657971D01*
X43697367Y-53657971D02*
X43625938Y-53515114D01*
X43625938Y-53515114D02*
X43554510Y-53229400D01*
X43554510Y-53229400D02*
X43554510Y-52872257D01*
X43554510Y-52872257D02*
X43625938Y-52586542D01*
X43625938Y-52586542D02*
X43697367Y-52443685D01*
X43697367Y-52443685D02*
X43768796Y-52372257D01*
X43768796Y-52372257D02*
X43911653Y-52300828D01*
X44983081Y-52443685D02*
X45054509Y-52372257D01*
X45054509Y-52372257D02*
X45197367Y-52300828D01*
X45197367Y-52300828D02*
X45554509Y-52300828D01*
X45554509Y-52300828D02*
X45697367Y-52372257D01*
X45697367Y-52372257D02*
X45768795Y-52443685D01*
X45768795Y-52443685D02*
X45840224Y-52586542D01*
X45840224Y-52586542D02*
X45840224Y-52729400D01*
X45840224Y-52729400D02*
X45768795Y-52943685D01*
X45768795Y-52943685D02*
X44911652Y-53800828D01*
X44911652Y-53800828D02*
X45840224Y-53800828D01*
X47125938Y-52300828D02*
X46840223Y-52300828D01*
X46840223Y-52300828D02*
X46697366Y-52372257D01*
X46697366Y-52372257D02*
X46625938Y-52443685D01*
X46625938Y-52443685D02*
X46483080Y-52657971D01*
X46483080Y-52657971D02*
X46411652Y-52943685D01*
X46411652Y-52943685D02*
X46411652Y-53515114D01*
X46411652Y-53515114D02*
X46483080Y-53657971D01*
X46483080Y-53657971D02*
X46554509Y-53729400D01*
X46554509Y-53729400D02*
X46697366Y-53800828D01*
X46697366Y-53800828D02*
X46983080Y-53800828D01*
X46983080Y-53800828D02*
X47125938Y-53729400D01*
X47125938Y-53729400D02*
X47197366Y-53657971D01*
X47197366Y-53657971D02*
X47268795Y-53515114D01*
X47268795Y-53515114D02*
X47268795Y-53157971D01*
X47268795Y-53157971D02*
X47197366Y-53015114D01*
X47197366Y-53015114D02*
X47125938Y-52943685D01*
X47125938Y-52943685D02*
X46983080Y-52872257D01*
X46983080Y-52872257D02*
X46697366Y-52872257D01*
X46697366Y-52872257D02*
X46554509Y-52943685D01*
X46554509Y-52943685D02*
X46483080Y-53015114D01*
X46483080Y-53015114D02*
X46411652Y-53157971D01*
D11*
X94833333Y-61654819D02*
X94500000Y-61178628D01*
X94261905Y-61654819D02*
X94261905Y-60654819D01*
X94261905Y-60654819D02*
X94642857Y-60654819D01*
X94642857Y-60654819D02*
X94738095Y-60702438D01*
X94738095Y-60702438D02*
X94785714Y-60750057D01*
X94785714Y-60750057D02*
X94833333Y-60845295D01*
X94833333Y-60845295D02*
X94833333Y-60988152D01*
X94833333Y-60988152D02*
X94785714Y-61083390D01*
X94785714Y-61083390D02*
X94738095Y-61131009D01*
X94738095Y-61131009D02*
X94642857Y-61178628D01*
X94642857Y-61178628D02*
X94261905Y-61178628D01*
X95166667Y-60654819D02*
X95785714Y-60654819D01*
X95785714Y-60654819D02*
X95452381Y-61035771D01*
X95452381Y-61035771D02*
X95595238Y-61035771D01*
X95595238Y-61035771D02*
X95690476Y-61083390D01*
X95690476Y-61083390D02*
X95738095Y-61131009D01*
X95738095Y-61131009D02*
X95785714Y-61226247D01*
X95785714Y-61226247D02*
X95785714Y-61464342D01*
X95785714Y-61464342D02*
X95738095Y-61559580D01*
X95738095Y-61559580D02*
X95690476Y-61607200D01*
X95690476Y-61607200D02*
X95595238Y-61654819D01*
X95595238Y-61654819D02*
X95309524Y-61654819D01*
X95309524Y-61654819D02*
X95214286Y-61607200D01*
X95214286Y-61607200D02*
X95166667Y-61559580D01*
X83454819Y-53738094D02*
X82454819Y-53738094D01*
X82454819Y-53738094D02*
X82454819Y-53499999D01*
X82454819Y-53499999D02*
X82502438Y-53357142D01*
X82502438Y-53357142D02*
X82597676Y-53261904D01*
X82597676Y-53261904D02*
X82692914Y-53214285D01*
X82692914Y-53214285D02*
X82883390Y-53166666D01*
X82883390Y-53166666D02*
X83026247Y-53166666D01*
X83026247Y-53166666D02*
X83216723Y-53214285D01*
X83216723Y-53214285D02*
X83311961Y-53261904D01*
X83311961Y-53261904D02*
X83407200Y-53357142D01*
X83407200Y-53357142D02*
X83454819Y-53499999D01*
X83454819Y-53499999D02*
X83454819Y-53738094D01*
X83454819Y-52214285D02*
X83454819Y-52785713D01*
X83454819Y-52499999D02*
X82454819Y-52499999D01*
X82454819Y-52499999D02*
X82597676Y-52595237D01*
X82597676Y-52595237D02*
X82692914Y-52690475D01*
X82692914Y-52690475D02*
X82740533Y-52785713D01*
X85354819Y-49631904D02*
X84354819Y-49631904D01*
X85354819Y-49060476D02*
X84783390Y-49489047D01*
X84354819Y-49060476D02*
X84926247Y-49631904D01*
X84914286Y-59254819D02*
X85485714Y-59254819D01*
X85200000Y-60254819D02*
X85200000Y-59254819D01*
X85819048Y-60254819D02*
X85819048Y-59254819D01*
X85819048Y-59254819D02*
X86200000Y-59254819D01*
X86200000Y-59254819D02*
X86295238Y-59302438D01*
X86295238Y-59302438D02*
X86342857Y-59350057D01*
X86342857Y-59350057D02*
X86390476Y-59445295D01*
X86390476Y-59445295D02*
X86390476Y-59588152D01*
X86390476Y-59588152D02*
X86342857Y-59683390D01*
X86342857Y-59683390D02*
X86295238Y-59731009D01*
X86295238Y-59731009D02*
X86200000Y-59778628D01*
X86200000Y-59778628D02*
X85819048Y-59778628D01*
X87390476Y-60159580D02*
X87342857Y-60207200D01*
X87342857Y-60207200D02*
X87200000Y-60254819D01*
X87200000Y-60254819D02*
X87104762Y-60254819D01*
X87104762Y-60254819D02*
X86961905Y-60207200D01*
X86961905Y-60207200D02*
X86866667Y-60111961D01*
X86866667Y-60111961D02*
X86819048Y-60016723D01*
X86819048Y-60016723D02*
X86771429Y-59826247D01*
X86771429Y-59826247D02*
X86771429Y-59683390D01*
X86771429Y-59683390D02*
X86819048Y-59492914D01*
X86819048Y-59492914D02*
X86866667Y-59397676D01*
X86866667Y-59397676D02*
X86961905Y-59302438D01*
X86961905Y-59302438D02*
X87104762Y-59254819D01*
X87104762Y-59254819D02*
X87200000Y-59254819D01*
X87200000Y-59254819D02*
X87342857Y-59302438D01*
X87342857Y-59302438D02*
X87390476Y-59350057D01*
X87819048Y-60254819D02*
X87819048Y-59254819D01*
X87819048Y-59731009D02*
X88390476Y-59731009D01*
X88390476Y-60254819D02*
X88390476Y-59254819D01*
X89390476Y-60254819D02*
X88819048Y-60254819D01*
X89104762Y-60254819D02*
X89104762Y-59254819D01*
X89104762Y-59254819D02*
X89009524Y-59397676D01*
X89009524Y-59397676D02*
X88914286Y-59492914D01*
X88914286Y-59492914D02*
X88819048Y-59540533D01*
X84104761Y-103850057D02*
X84009523Y-103802438D01*
X84009523Y-103802438D02*
X83914285Y-103707200D01*
X83914285Y-103707200D02*
X83771428Y-103564342D01*
X83771428Y-103564342D02*
X83676190Y-103516723D01*
X83676190Y-103516723D02*
X83580952Y-103516723D01*
X83628571Y-103754819D02*
X83533333Y-103707200D01*
X83533333Y-103707200D02*
X83438095Y-103611961D01*
X83438095Y-103611961D02*
X83390476Y-103421485D01*
X83390476Y-103421485D02*
X83390476Y-103088152D01*
X83390476Y-103088152D02*
X83438095Y-102897676D01*
X83438095Y-102897676D02*
X83533333Y-102802438D01*
X83533333Y-102802438D02*
X83628571Y-102754819D01*
X83628571Y-102754819D02*
X83819047Y-102754819D01*
X83819047Y-102754819D02*
X83914285Y-102802438D01*
X83914285Y-102802438D02*
X84009523Y-102897676D01*
X84009523Y-102897676D02*
X84057142Y-103088152D01*
X84057142Y-103088152D02*
X84057142Y-103421485D01*
X84057142Y-103421485D02*
X84009523Y-103611961D01*
X84009523Y-103611961D02*
X83914285Y-103707200D01*
X83914285Y-103707200D02*
X83819047Y-103754819D01*
X83819047Y-103754819D02*
X83628571Y-103754819D01*
X85009523Y-103754819D02*
X84438095Y-103754819D01*
X84723809Y-103754819D02*
X84723809Y-102754819D01*
X84723809Y-102754819D02*
X84628571Y-102897676D01*
X84628571Y-102897676D02*
X84533333Y-102992914D01*
X84533333Y-102992914D02*
X84438095Y-103040533D01*
X63966666Y-109654819D02*
X63966666Y-110369104D01*
X63966666Y-110369104D02*
X63919047Y-110511961D01*
X63919047Y-110511961D02*
X63823809Y-110607200D01*
X63823809Y-110607200D02*
X63680952Y-110654819D01*
X63680952Y-110654819D02*
X63585714Y-110654819D01*
X64871428Y-109988152D02*
X64871428Y-110654819D01*
X64633333Y-109607200D02*
X64395238Y-110321485D01*
X64395238Y-110321485D02*
X65014285Y-110321485D01*
X22166666Y-55954819D02*
X22166666Y-56669104D01*
X22166666Y-56669104D02*
X22119047Y-56811961D01*
X22119047Y-56811961D02*
X22023809Y-56907200D01*
X22023809Y-56907200D02*
X21880952Y-56954819D01*
X21880952Y-56954819D02*
X21785714Y-56954819D01*
X23119047Y-55954819D02*
X22642857Y-55954819D01*
X22642857Y-55954819D02*
X22595238Y-56431009D01*
X22595238Y-56431009D02*
X22642857Y-56383390D01*
X22642857Y-56383390D02*
X22738095Y-56335771D01*
X22738095Y-56335771D02*
X22976190Y-56335771D01*
X22976190Y-56335771D02*
X23071428Y-56383390D01*
X23071428Y-56383390D02*
X23119047Y-56431009D01*
X23119047Y-56431009D02*
X23166666Y-56526247D01*
X23166666Y-56526247D02*
X23166666Y-56764342D01*
X23166666Y-56764342D02*
X23119047Y-56859580D01*
X23119047Y-56859580D02*
X23071428Y-56907200D01*
X23071428Y-56907200D02*
X22976190Y-56954819D01*
X22976190Y-56954819D02*
X22738095Y-56954819D01*
X22738095Y-56954819D02*
X22642857Y-56907200D01*
X22642857Y-56907200D02*
X22595238Y-56859580D01*
X66629819Y-72396666D02*
X66153628Y-72729999D01*
X66629819Y-72968094D02*
X65629819Y-72968094D01*
X65629819Y-72968094D02*
X65629819Y-72587142D01*
X65629819Y-72587142D02*
X65677438Y-72491904D01*
X65677438Y-72491904D02*
X65725057Y-72444285D01*
X65725057Y-72444285D02*
X65820295Y-72396666D01*
X65820295Y-72396666D02*
X65963152Y-72396666D01*
X65963152Y-72396666D02*
X66058390Y-72444285D01*
X66058390Y-72444285D02*
X66106009Y-72491904D01*
X66106009Y-72491904D02*
X66153628Y-72587142D01*
X66153628Y-72587142D02*
X66153628Y-72968094D01*
X65725057Y-72015713D02*
X65677438Y-71968094D01*
X65677438Y-71968094D02*
X65629819Y-71872856D01*
X65629819Y-71872856D02*
X65629819Y-71634761D01*
X65629819Y-71634761D02*
X65677438Y-71539523D01*
X65677438Y-71539523D02*
X65725057Y-71491904D01*
X65725057Y-71491904D02*
X65820295Y-71444285D01*
X65820295Y-71444285D02*
X65915533Y-71444285D01*
X65915533Y-71444285D02*
X66058390Y-71491904D01*
X66058390Y-71491904D02*
X66629819Y-72063332D01*
X66629819Y-72063332D02*
X66629819Y-71444285D01*
X92604819Y-77221428D02*
X92128628Y-77554761D01*
X92604819Y-77792856D02*
X91604819Y-77792856D01*
X91604819Y-77792856D02*
X91604819Y-77411904D01*
X91604819Y-77411904D02*
X91652438Y-77316666D01*
X91652438Y-77316666D02*
X91700057Y-77269047D01*
X91700057Y-77269047D02*
X91795295Y-77221428D01*
X91795295Y-77221428D02*
X91938152Y-77221428D01*
X91938152Y-77221428D02*
X92033390Y-77269047D01*
X92033390Y-77269047D02*
X92081009Y-77316666D01*
X92081009Y-77316666D02*
X92128628Y-77411904D01*
X92128628Y-77411904D02*
X92128628Y-77792856D01*
X92557200Y-76840475D02*
X92604819Y-76745237D01*
X92604819Y-76745237D02*
X92604819Y-76554761D01*
X92604819Y-76554761D02*
X92557200Y-76459523D01*
X92557200Y-76459523D02*
X92461961Y-76411904D01*
X92461961Y-76411904D02*
X92414342Y-76411904D01*
X92414342Y-76411904D02*
X92319104Y-76459523D01*
X92319104Y-76459523D02*
X92271485Y-76554761D01*
X92271485Y-76554761D02*
X92271485Y-76697618D01*
X92271485Y-76697618D02*
X92223866Y-76792856D01*
X92223866Y-76792856D02*
X92128628Y-76840475D01*
X92128628Y-76840475D02*
X92081009Y-76840475D01*
X92081009Y-76840475D02*
X91985771Y-76792856D01*
X91985771Y-76792856D02*
X91938152Y-76697618D01*
X91938152Y-76697618D02*
X91938152Y-76554761D01*
X91938152Y-76554761D02*
X91985771Y-76459523D01*
X91700057Y-76030951D02*
X91652438Y-75983332D01*
X91652438Y-75983332D02*
X91604819Y-75888094D01*
X91604819Y-75888094D02*
X91604819Y-75649999D01*
X91604819Y-75649999D02*
X91652438Y-75554761D01*
X91652438Y-75554761D02*
X91700057Y-75507142D01*
X91700057Y-75507142D02*
X91795295Y-75459523D01*
X91795295Y-75459523D02*
X91890533Y-75459523D01*
X91890533Y-75459523D02*
X92033390Y-75507142D01*
X92033390Y-75507142D02*
X92604819Y-76078570D01*
X92604819Y-76078570D02*
X92604819Y-75459523D01*
X100433333Y-114754819D02*
X99957143Y-114754819D01*
X99957143Y-114754819D02*
X99957143Y-113754819D01*
X101290476Y-114754819D02*
X100719048Y-114754819D01*
X101004762Y-114754819D02*
X101004762Y-113754819D01*
X101004762Y-113754819D02*
X100909524Y-113897676D01*
X100909524Y-113897676D02*
X100814286Y-113992914D01*
X100814286Y-113992914D02*
X100719048Y-114040533D01*
X80981905Y-88754819D02*
X80981905Y-87754819D01*
X80981905Y-87754819D02*
X81220000Y-87754819D01*
X81220000Y-87754819D02*
X81362857Y-87802438D01*
X81362857Y-87802438D02*
X81458095Y-87897676D01*
X81458095Y-87897676D02*
X81505714Y-87992914D01*
X81505714Y-87992914D02*
X81553333Y-88183390D01*
X81553333Y-88183390D02*
X81553333Y-88326247D01*
X81553333Y-88326247D02*
X81505714Y-88516723D01*
X81505714Y-88516723D02*
X81458095Y-88611961D01*
X81458095Y-88611961D02*
X81362857Y-88707200D01*
X81362857Y-88707200D02*
X81220000Y-88754819D01*
X81220000Y-88754819D02*
X80981905Y-88754819D01*
X82410476Y-87754819D02*
X82220000Y-87754819D01*
X82220000Y-87754819D02*
X82124762Y-87802438D01*
X82124762Y-87802438D02*
X82077143Y-87850057D01*
X82077143Y-87850057D02*
X81981905Y-87992914D01*
X81981905Y-87992914D02*
X81934286Y-88183390D01*
X81934286Y-88183390D02*
X81934286Y-88564342D01*
X81934286Y-88564342D02*
X81981905Y-88659580D01*
X81981905Y-88659580D02*
X82029524Y-88707200D01*
X82029524Y-88707200D02*
X82124762Y-88754819D01*
X82124762Y-88754819D02*
X82315238Y-88754819D01*
X82315238Y-88754819D02*
X82410476Y-88707200D01*
X82410476Y-88707200D02*
X82458095Y-88659580D01*
X82458095Y-88659580D02*
X82505714Y-88564342D01*
X82505714Y-88564342D02*
X82505714Y-88326247D01*
X82505714Y-88326247D02*
X82458095Y-88231009D01*
X82458095Y-88231009D02*
X82410476Y-88183390D01*
X82410476Y-88183390D02*
X82315238Y-88135771D01*
X82315238Y-88135771D02*
X82124762Y-88135771D01*
X82124762Y-88135771D02*
X82029524Y-88183390D01*
X82029524Y-88183390D02*
X81981905Y-88231009D01*
X81981905Y-88231009D02*
X81934286Y-88326247D01*
X74138095Y-88754819D02*
X74138095Y-87754819D01*
X74709523Y-88754819D02*
X74280952Y-88183390D01*
X74709523Y-87754819D02*
X74138095Y-88326247D01*
X107066666Y-80754819D02*
X107066666Y-81469104D01*
X107066666Y-81469104D02*
X107019047Y-81611961D01*
X107019047Y-81611961D02*
X106923809Y-81707200D01*
X106923809Y-81707200D02*
X106780952Y-81754819D01*
X106780952Y-81754819D02*
X106685714Y-81754819D01*
X107495238Y-80850057D02*
X107542857Y-80802438D01*
X107542857Y-80802438D02*
X107638095Y-80754819D01*
X107638095Y-80754819D02*
X107876190Y-80754819D01*
X107876190Y-80754819D02*
X107971428Y-80802438D01*
X107971428Y-80802438D02*
X108019047Y-80850057D01*
X108019047Y-80850057D02*
X108066666Y-80945295D01*
X108066666Y-80945295D02*
X108066666Y-81040533D01*
X108066666Y-81040533D02*
X108019047Y-81183390D01*
X108019047Y-81183390D02*
X107447619Y-81754819D01*
X107447619Y-81754819D02*
X108066666Y-81754819D01*
X88233333Y-108754819D02*
X87900000Y-108278628D01*
X87661905Y-108754819D02*
X87661905Y-107754819D01*
X87661905Y-107754819D02*
X88042857Y-107754819D01*
X88042857Y-107754819D02*
X88138095Y-107802438D01*
X88138095Y-107802438D02*
X88185714Y-107850057D01*
X88185714Y-107850057D02*
X88233333Y-107945295D01*
X88233333Y-107945295D02*
X88233333Y-108088152D01*
X88233333Y-108088152D02*
X88185714Y-108183390D01*
X88185714Y-108183390D02*
X88138095Y-108231009D01*
X88138095Y-108231009D02*
X88042857Y-108278628D01*
X88042857Y-108278628D02*
X87661905Y-108278628D01*
X89090476Y-107754819D02*
X88900000Y-107754819D01*
X88900000Y-107754819D02*
X88804762Y-107802438D01*
X88804762Y-107802438D02*
X88757143Y-107850057D01*
X88757143Y-107850057D02*
X88661905Y-107992914D01*
X88661905Y-107992914D02*
X88614286Y-108183390D01*
X88614286Y-108183390D02*
X88614286Y-108564342D01*
X88614286Y-108564342D02*
X88661905Y-108659580D01*
X88661905Y-108659580D02*
X88709524Y-108707200D01*
X88709524Y-108707200D02*
X88804762Y-108754819D01*
X88804762Y-108754819D02*
X88995238Y-108754819D01*
X88995238Y-108754819D02*
X89090476Y-108707200D01*
X89090476Y-108707200D02*
X89138095Y-108659580D01*
X89138095Y-108659580D02*
X89185714Y-108564342D01*
X89185714Y-108564342D02*
X89185714Y-108326247D01*
X89185714Y-108326247D02*
X89138095Y-108231009D01*
X89138095Y-108231009D02*
X89090476Y-108183390D01*
X89090476Y-108183390D02*
X88995238Y-108135771D01*
X88995238Y-108135771D02*
X88804762Y-108135771D01*
X88804762Y-108135771D02*
X88709524Y-108183390D01*
X88709524Y-108183390D02*
X88661905Y-108231009D01*
X88661905Y-108231009D02*
X88614286Y-108326247D01*
X93433333Y-96654819D02*
X93100000Y-96178628D01*
X92861905Y-96654819D02*
X92861905Y-95654819D01*
X92861905Y-95654819D02*
X93242857Y-95654819D01*
X93242857Y-95654819D02*
X93338095Y-95702438D01*
X93338095Y-95702438D02*
X93385714Y-95750057D01*
X93385714Y-95750057D02*
X93433333Y-95845295D01*
X93433333Y-95845295D02*
X93433333Y-95988152D01*
X93433333Y-95988152D02*
X93385714Y-96083390D01*
X93385714Y-96083390D02*
X93338095Y-96131009D01*
X93338095Y-96131009D02*
X93242857Y-96178628D01*
X93242857Y-96178628D02*
X92861905Y-96178628D01*
X93766667Y-95654819D02*
X94433333Y-95654819D01*
X94433333Y-95654819D02*
X94004762Y-96654819D01*
X83033333Y-113854819D02*
X82700000Y-113378628D01*
X82461905Y-113854819D02*
X82461905Y-112854819D01*
X82461905Y-112854819D02*
X82842857Y-112854819D01*
X82842857Y-112854819D02*
X82938095Y-112902438D01*
X82938095Y-112902438D02*
X82985714Y-112950057D01*
X82985714Y-112950057D02*
X83033333Y-113045295D01*
X83033333Y-113045295D02*
X83033333Y-113188152D01*
X83033333Y-113188152D02*
X82985714Y-113283390D01*
X82985714Y-113283390D02*
X82938095Y-113331009D01*
X82938095Y-113331009D02*
X82842857Y-113378628D01*
X82842857Y-113378628D02*
X82461905Y-113378628D01*
X83938095Y-112854819D02*
X83461905Y-112854819D01*
X83461905Y-112854819D02*
X83414286Y-113331009D01*
X83414286Y-113331009D02*
X83461905Y-113283390D01*
X83461905Y-113283390D02*
X83557143Y-113235771D01*
X83557143Y-113235771D02*
X83795238Y-113235771D01*
X83795238Y-113235771D02*
X83890476Y-113283390D01*
X83890476Y-113283390D02*
X83938095Y-113331009D01*
X83938095Y-113331009D02*
X83985714Y-113426247D01*
X83985714Y-113426247D02*
X83985714Y-113664342D01*
X83985714Y-113664342D02*
X83938095Y-113759580D01*
X83938095Y-113759580D02*
X83890476Y-113807200D01*
X83890476Y-113807200D02*
X83795238Y-113854819D01*
X83795238Y-113854819D02*
X83557143Y-113854819D01*
X83557143Y-113854819D02*
X83461905Y-113807200D01*
X83461905Y-113807200D02*
X83414286Y-113759580D01*
X100214286Y-82054819D02*
X100785714Y-82054819D01*
X100500000Y-83054819D02*
X100500000Y-82054819D01*
X101119048Y-83054819D02*
X101119048Y-82054819D01*
X101119048Y-82054819D02*
X101500000Y-82054819D01*
X101500000Y-82054819D02*
X101595238Y-82102438D01*
X101595238Y-82102438D02*
X101642857Y-82150057D01*
X101642857Y-82150057D02*
X101690476Y-82245295D01*
X101690476Y-82245295D02*
X101690476Y-82388152D01*
X101690476Y-82388152D02*
X101642857Y-82483390D01*
X101642857Y-82483390D02*
X101595238Y-82531009D01*
X101595238Y-82531009D02*
X101500000Y-82578628D01*
X101500000Y-82578628D02*
X101119048Y-82578628D01*
X102690476Y-82959580D02*
X102642857Y-83007200D01*
X102642857Y-83007200D02*
X102500000Y-83054819D01*
X102500000Y-83054819D02*
X102404762Y-83054819D01*
X102404762Y-83054819D02*
X102261905Y-83007200D01*
X102261905Y-83007200D02*
X102166667Y-82911961D01*
X102166667Y-82911961D02*
X102119048Y-82816723D01*
X102119048Y-82816723D02*
X102071429Y-82626247D01*
X102071429Y-82626247D02*
X102071429Y-82483390D01*
X102071429Y-82483390D02*
X102119048Y-82292914D01*
X102119048Y-82292914D02*
X102166667Y-82197676D01*
X102166667Y-82197676D02*
X102261905Y-82102438D01*
X102261905Y-82102438D02*
X102404762Y-82054819D01*
X102404762Y-82054819D02*
X102500000Y-82054819D01*
X102500000Y-82054819D02*
X102642857Y-82102438D01*
X102642857Y-82102438D02*
X102690476Y-82150057D01*
X103119048Y-83054819D02*
X103119048Y-82054819D01*
X103119048Y-82531009D02*
X103690476Y-82531009D01*
X103690476Y-83054819D02*
X103690476Y-82054819D01*
X104119048Y-82150057D02*
X104166667Y-82102438D01*
X104166667Y-82102438D02*
X104261905Y-82054819D01*
X104261905Y-82054819D02*
X104500000Y-82054819D01*
X104500000Y-82054819D02*
X104595238Y-82102438D01*
X104595238Y-82102438D02*
X104642857Y-82150057D01*
X104642857Y-82150057D02*
X104690476Y-82245295D01*
X104690476Y-82245295D02*
X104690476Y-82340533D01*
X104690476Y-82340533D02*
X104642857Y-82483390D01*
X104642857Y-82483390D02*
X104071429Y-83054819D01*
X104071429Y-83054819D02*
X104690476Y-83054819D01*
X92704761Y-109750057D02*
X92609523Y-109702438D01*
X92609523Y-109702438D02*
X92514285Y-109607200D01*
X92514285Y-109607200D02*
X92371428Y-109464342D01*
X92371428Y-109464342D02*
X92276190Y-109416723D01*
X92276190Y-109416723D02*
X92180952Y-109416723D01*
X92228571Y-109654819D02*
X92133333Y-109607200D01*
X92133333Y-109607200D02*
X92038095Y-109511961D01*
X92038095Y-109511961D02*
X91990476Y-109321485D01*
X91990476Y-109321485D02*
X91990476Y-108988152D01*
X91990476Y-108988152D02*
X92038095Y-108797676D01*
X92038095Y-108797676D02*
X92133333Y-108702438D01*
X92133333Y-108702438D02*
X92228571Y-108654819D01*
X92228571Y-108654819D02*
X92419047Y-108654819D01*
X92419047Y-108654819D02*
X92514285Y-108702438D01*
X92514285Y-108702438D02*
X92609523Y-108797676D01*
X92609523Y-108797676D02*
X92657142Y-108988152D01*
X92657142Y-108988152D02*
X92657142Y-109321485D01*
X92657142Y-109321485D02*
X92609523Y-109511961D01*
X92609523Y-109511961D02*
X92514285Y-109607200D01*
X92514285Y-109607200D02*
X92419047Y-109654819D01*
X92419047Y-109654819D02*
X92228571Y-109654819D01*
X93038095Y-108750057D02*
X93085714Y-108702438D01*
X93085714Y-108702438D02*
X93180952Y-108654819D01*
X93180952Y-108654819D02*
X93419047Y-108654819D01*
X93419047Y-108654819D02*
X93514285Y-108702438D01*
X93514285Y-108702438D02*
X93561904Y-108750057D01*
X93561904Y-108750057D02*
X93609523Y-108845295D01*
X93609523Y-108845295D02*
X93609523Y-108940533D01*
X93609523Y-108940533D02*
X93561904Y-109083390D01*
X93561904Y-109083390D02*
X92990476Y-109654819D01*
X92990476Y-109654819D02*
X93609523Y-109654819D01*
X91133333Y-73354819D02*
X90800000Y-72878628D01*
X90561905Y-73354819D02*
X90561905Y-72354819D01*
X90561905Y-72354819D02*
X90942857Y-72354819D01*
X90942857Y-72354819D02*
X91038095Y-72402438D01*
X91038095Y-72402438D02*
X91085714Y-72450057D01*
X91085714Y-72450057D02*
X91133333Y-72545295D01*
X91133333Y-72545295D02*
X91133333Y-72688152D01*
X91133333Y-72688152D02*
X91085714Y-72783390D01*
X91085714Y-72783390D02*
X91038095Y-72831009D01*
X91038095Y-72831009D02*
X90942857Y-72878628D01*
X90942857Y-72878628D02*
X90561905Y-72878628D01*
X91990476Y-72688152D02*
X91990476Y-73354819D01*
X91752381Y-72307200D02*
X91514286Y-73021485D01*
X91514286Y-73021485D02*
X92133333Y-73021485D01*
X76614286Y-68654819D02*
X77185714Y-68654819D01*
X76900000Y-69654819D02*
X76900000Y-68654819D01*
X77519048Y-69654819D02*
X77519048Y-68654819D01*
X77519048Y-68654819D02*
X77900000Y-68654819D01*
X77900000Y-68654819D02*
X77995238Y-68702438D01*
X77995238Y-68702438D02*
X78042857Y-68750057D01*
X78042857Y-68750057D02*
X78090476Y-68845295D01*
X78090476Y-68845295D02*
X78090476Y-68988152D01*
X78090476Y-68988152D02*
X78042857Y-69083390D01*
X78042857Y-69083390D02*
X77995238Y-69131009D01*
X77995238Y-69131009D02*
X77900000Y-69178628D01*
X77900000Y-69178628D02*
X77519048Y-69178628D01*
X78709524Y-68654819D02*
X78900000Y-68654819D01*
X78900000Y-68654819D02*
X78995238Y-68702438D01*
X78995238Y-68702438D02*
X79090476Y-68797676D01*
X79090476Y-68797676D02*
X79138095Y-68988152D01*
X79138095Y-68988152D02*
X79138095Y-69321485D01*
X79138095Y-69321485D02*
X79090476Y-69511961D01*
X79090476Y-69511961D02*
X78995238Y-69607200D01*
X78995238Y-69607200D02*
X78900000Y-69654819D01*
X78900000Y-69654819D02*
X78709524Y-69654819D01*
X78709524Y-69654819D02*
X78614286Y-69607200D01*
X78614286Y-69607200D02*
X78519048Y-69511961D01*
X78519048Y-69511961D02*
X78471429Y-69321485D01*
X78471429Y-69321485D02*
X78471429Y-68988152D01*
X78471429Y-68988152D02*
X78519048Y-68797676D01*
X78519048Y-68797676D02*
X78614286Y-68702438D01*
X78614286Y-68702438D02*
X78709524Y-68654819D01*
X79566667Y-69654819D02*
X79566667Y-68654819D01*
X79566667Y-68654819D02*
X79947619Y-68654819D01*
X79947619Y-68654819D02*
X80042857Y-68702438D01*
X80042857Y-68702438D02*
X80090476Y-68750057D01*
X80090476Y-68750057D02*
X80138095Y-68845295D01*
X80138095Y-68845295D02*
X80138095Y-68988152D01*
X80138095Y-68988152D02*
X80090476Y-69083390D01*
X80090476Y-69083390D02*
X80042857Y-69131009D01*
X80042857Y-69131009D02*
X79947619Y-69178628D01*
X79947619Y-69178628D02*
X79566667Y-69178628D01*
X81090476Y-69654819D02*
X80519048Y-69654819D01*
X80804762Y-69654819D02*
X80804762Y-68654819D01*
X80804762Y-68654819D02*
X80709524Y-68797676D01*
X80709524Y-68797676D02*
X80614286Y-68892914D01*
X80614286Y-68892914D02*
X80519048Y-68940533D01*
X97654819Y-107766666D02*
X97178628Y-108099999D01*
X97654819Y-108338094D02*
X96654819Y-108338094D01*
X96654819Y-108338094D02*
X96654819Y-107957142D01*
X96654819Y-107957142D02*
X96702438Y-107861904D01*
X96702438Y-107861904D02*
X96750057Y-107814285D01*
X96750057Y-107814285D02*
X96845295Y-107766666D01*
X96845295Y-107766666D02*
X96988152Y-107766666D01*
X96988152Y-107766666D02*
X97083390Y-107814285D01*
X97083390Y-107814285D02*
X97131009Y-107861904D01*
X97131009Y-107861904D02*
X97178628Y-107957142D01*
X97178628Y-107957142D02*
X97178628Y-108338094D01*
X97083390Y-107195237D02*
X97035771Y-107290475D01*
X97035771Y-107290475D02*
X96988152Y-107338094D01*
X96988152Y-107338094D02*
X96892914Y-107385713D01*
X96892914Y-107385713D02*
X96845295Y-107385713D01*
X96845295Y-107385713D02*
X96750057Y-107338094D01*
X96750057Y-107338094D02*
X96702438Y-107290475D01*
X96702438Y-107290475D02*
X96654819Y-107195237D01*
X96654819Y-107195237D02*
X96654819Y-107004761D01*
X96654819Y-107004761D02*
X96702438Y-106909523D01*
X96702438Y-106909523D02*
X96750057Y-106861904D01*
X96750057Y-106861904D02*
X96845295Y-106814285D01*
X96845295Y-106814285D02*
X96892914Y-106814285D01*
X96892914Y-106814285D02*
X96988152Y-106861904D01*
X96988152Y-106861904D02*
X97035771Y-106909523D01*
X97035771Y-106909523D02*
X97083390Y-107004761D01*
X97083390Y-107004761D02*
X97083390Y-107195237D01*
X97083390Y-107195237D02*
X97131009Y-107290475D01*
X97131009Y-107290475D02*
X97178628Y-107338094D01*
X97178628Y-107338094D02*
X97273866Y-107385713D01*
X97273866Y-107385713D02*
X97464342Y-107385713D01*
X97464342Y-107385713D02*
X97559580Y-107338094D01*
X97559580Y-107338094D02*
X97607200Y-107290475D01*
X97607200Y-107290475D02*
X97654819Y-107195237D01*
X97654819Y-107195237D02*
X97654819Y-107004761D01*
X97654819Y-107004761D02*
X97607200Y-106909523D01*
X97607200Y-106909523D02*
X97559580Y-106861904D01*
X97559580Y-106861904D02*
X97464342Y-106814285D01*
X97464342Y-106814285D02*
X97273866Y-106814285D01*
X97273866Y-106814285D02*
X97178628Y-106861904D01*
X97178628Y-106861904D02*
X97131009Y-106909523D01*
X97131009Y-106909523D02*
X97083390Y-107004761D01*
X90881905Y-115324819D02*
X90881905Y-114324819D01*
X90881905Y-114324819D02*
X91120000Y-114324819D01*
X91120000Y-114324819D02*
X91262857Y-114372438D01*
X91262857Y-114372438D02*
X91358095Y-114467676D01*
X91358095Y-114467676D02*
X91405714Y-114562914D01*
X91405714Y-114562914D02*
X91453333Y-114753390D01*
X91453333Y-114753390D02*
X91453333Y-114896247D01*
X91453333Y-114896247D02*
X91405714Y-115086723D01*
X91405714Y-115086723D02*
X91358095Y-115181961D01*
X91358095Y-115181961D02*
X91262857Y-115277200D01*
X91262857Y-115277200D02*
X91120000Y-115324819D01*
X91120000Y-115324819D02*
X90881905Y-115324819D01*
X91786667Y-114324819D02*
X92453333Y-114324819D01*
X92453333Y-114324819D02*
X92024762Y-115324819D01*
X96438095Y-114954819D02*
X96438095Y-113954819D01*
X97009523Y-114954819D02*
X96580952Y-114383390D01*
X97009523Y-113954819D02*
X96438095Y-114526247D01*
X78454819Y-53619047D02*
X77978628Y-53952380D01*
X78454819Y-54190475D02*
X77454819Y-54190475D01*
X77454819Y-54190475D02*
X77454819Y-53809523D01*
X77454819Y-53809523D02*
X77502438Y-53714285D01*
X77502438Y-53714285D02*
X77550057Y-53666666D01*
X77550057Y-53666666D02*
X77645295Y-53619047D01*
X77645295Y-53619047D02*
X77788152Y-53619047D01*
X77788152Y-53619047D02*
X77883390Y-53666666D01*
X77883390Y-53666666D02*
X77931009Y-53714285D01*
X77931009Y-53714285D02*
X77978628Y-53809523D01*
X77978628Y-53809523D02*
X77978628Y-54190475D01*
X77788152Y-52761904D02*
X78597676Y-52761904D01*
X78597676Y-52761904D02*
X78692914Y-52809523D01*
X78692914Y-52809523D02*
X78740533Y-52857142D01*
X78740533Y-52857142D02*
X78788152Y-52952380D01*
X78788152Y-52952380D02*
X78788152Y-53095237D01*
X78788152Y-53095237D02*
X78740533Y-53190475D01*
X78407200Y-52761904D02*
X78454819Y-52857142D01*
X78454819Y-52857142D02*
X78454819Y-53047618D01*
X78454819Y-53047618D02*
X78407200Y-53142856D01*
X78407200Y-53142856D02*
X78359580Y-53190475D01*
X78359580Y-53190475D02*
X78264342Y-53238094D01*
X78264342Y-53238094D02*
X77978628Y-53238094D01*
X77978628Y-53238094D02*
X77883390Y-53190475D01*
X77883390Y-53190475D02*
X77835771Y-53142856D01*
X77835771Y-53142856D02*
X77788152Y-53047618D01*
X77788152Y-53047618D02*
X77788152Y-52857142D01*
X77788152Y-52857142D02*
X77835771Y-52761904D01*
X78454819Y-51761904D02*
X78454819Y-52333332D01*
X78454819Y-52047618D02*
X77454819Y-52047618D01*
X77454819Y-52047618D02*
X77597676Y-52142856D01*
X77597676Y-52142856D02*
X77692914Y-52238094D01*
X77692914Y-52238094D02*
X77740533Y-52333332D01*
X24073339Y-63215895D02*
X23597149Y-63215895D01*
X24168577Y-62930180D02*
X23835244Y-63930180D01*
X23835244Y-63930180D02*
X23501911Y-62930180D01*
X22644768Y-62930180D02*
X23216196Y-62930180D01*
X22930482Y-62930180D02*
X22930482Y-63930180D01*
X22930482Y-63930180D02*
X23025720Y-63787323D01*
X23025720Y-63787323D02*
X23120958Y-63692085D01*
X23120958Y-63692085D02*
X23216196Y-63644466D01*
X104533333Y-96959580D02*
X104485714Y-97007200D01*
X104485714Y-97007200D02*
X104342857Y-97054819D01*
X104342857Y-97054819D02*
X104247619Y-97054819D01*
X104247619Y-97054819D02*
X104104762Y-97007200D01*
X104104762Y-97007200D02*
X104009524Y-96911961D01*
X104009524Y-96911961D02*
X103961905Y-96816723D01*
X103961905Y-96816723D02*
X103914286Y-96626247D01*
X103914286Y-96626247D02*
X103914286Y-96483390D01*
X103914286Y-96483390D02*
X103961905Y-96292914D01*
X103961905Y-96292914D02*
X104009524Y-96197676D01*
X104009524Y-96197676D02*
X104104762Y-96102438D01*
X104104762Y-96102438D02*
X104247619Y-96054819D01*
X104247619Y-96054819D02*
X104342857Y-96054819D01*
X104342857Y-96054819D02*
X104485714Y-96102438D01*
X104485714Y-96102438D02*
X104533333Y-96150057D01*
X104866667Y-96054819D02*
X105533333Y-96054819D01*
X105533333Y-96054819D02*
X105104762Y-97054819D01*
X22359580Y-105166666D02*
X22407200Y-105214285D01*
X22407200Y-105214285D02*
X22454819Y-105357142D01*
X22454819Y-105357142D02*
X22454819Y-105452380D01*
X22454819Y-105452380D02*
X22407200Y-105595237D01*
X22407200Y-105595237D02*
X22311961Y-105690475D01*
X22311961Y-105690475D02*
X22216723Y-105738094D01*
X22216723Y-105738094D02*
X22026247Y-105785713D01*
X22026247Y-105785713D02*
X21883390Y-105785713D01*
X21883390Y-105785713D02*
X21692914Y-105738094D01*
X21692914Y-105738094D02*
X21597676Y-105690475D01*
X21597676Y-105690475D02*
X21502438Y-105595237D01*
X21502438Y-105595237D02*
X21454819Y-105452380D01*
X21454819Y-105452380D02*
X21454819Y-105357142D01*
X21454819Y-105357142D02*
X21502438Y-105214285D01*
X21502438Y-105214285D02*
X21550057Y-105166666D01*
X21550057Y-104785713D02*
X21502438Y-104738094D01*
X21502438Y-104738094D02*
X21454819Y-104642856D01*
X21454819Y-104642856D02*
X21454819Y-104404761D01*
X21454819Y-104404761D02*
X21502438Y-104309523D01*
X21502438Y-104309523D02*
X21550057Y-104261904D01*
X21550057Y-104261904D02*
X21645295Y-104214285D01*
X21645295Y-104214285D02*
X21740533Y-104214285D01*
X21740533Y-104214285D02*
X21883390Y-104261904D01*
X21883390Y-104261904D02*
X22454819Y-104833332D01*
X22454819Y-104833332D02*
X22454819Y-104214285D01*
X90780952Y-90354819D02*
X90447619Y-89878628D01*
X90209524Y-90354819D02*
X90209524Y-89354819D01*
X90209524Y-89354819D02*
X90590476Y-89354819D01*
X90590476Y-89354819D02*
X90685714Y-89402438D01*
X90685714Y-89402438D02*
X90733333Y-89450057D01*
X90733333Y-89450057D02*
X90780952Y-89545295D01*
X90780952Y-89545295D02*
X90780952Y-89688152D01*
X90780952Y-89688152D02*
X90733333Y-89783390D01*
X90733333Y-89783390D02*
X90685714Y-89831009D01*
X90685714Y-89831009D02*
X90590476Y-89878628D01*
X90590476Y-89878628D02*
X90209524Y-89878628D01*
X91638095Y-89688152D02*
X91638095Y-90497676D01*
X91638095Y-90497676D02*
X91590476Y-90592914D01*
X91590476Y-90592914D02*
X91542857Y-90640533D01*
X91542857Y-90640533D02*
X91447619Y-90688152D01*
X91447619Y-90688152D02*
X91304762Y-90688152D01*
X91304762Y-90688152D02*
X91209524Y-90640533D01*
X91638095Y-90307200D02*
X91542857Y-90354819D01*
X91542857Y-90354819D02*
X91352381Y-90354819D01*
X91352381Y-90354819D02*
X91257143Y-90307200D01*
X91257143Y-90307200D02*
X91209524Y-90259580D01*
X91209524Y-90259580D02*
X91161905Y-90164342D01*
X91161905Y-90164342D02*
X91161905Y-89878628D01*
X91161905Y-89878628D02*
X91209524Y-89783390D01*
X91209524Y-89783390D02*
X91257143Y-89735771D01*
X91257143Y-89735771D02*
X91352381Y-89688152D01*
X91352381Y-89688152D02*
X91542857Y-89688152D01*
X91542857Y-89688152D02*
X91638095Y-89735771D01*
X92066667Y-89450057D02*
X92114286Y-89402438D01*
X92114286Y-89402438D02*
X92209524Y-89354819D01*
X92209524Y-89354819D02*
X92447619Y-89354819D01*
X92447619Y-89354819D02*
X92542857Y-89402438D01*
X92542857Y-89402438D02*
X92590476Y-89450057D01*
X92590476Y-89450057D02*
X92638095Y-89545295D01*
X92638095Y-89545295D02*
X92638095Y-89640533D01*
X92638095Y-89640533D02*
X92590476Y-89783390D01*
X92590476Y-89783390D02*
X92019048Y-90354819D01*
X92019048Y-90354819D02*
X92638095Y-90354819D01*
X87483333Y-62659580D02*
X87435714Y-62707200D01*
X87435714Y-62707200D02*
X87292857Y-62754819D01*
X87292857Y-62754819D02*
X87197619Y-62754819D01*
X87197619Y-62754819D02*
X87054762Y-62707200D01*
X87054762Y-62707200D02*
X86959524Y-62611961D01*
X86959524Y-62611961D02*
X86911905Y-62516723D01*
X86911905Y-62516723D02*
X86864286Y-62326247D01*
X86864286Y-62326247D02*
X86864286Y-62183390D01*
X86864286Y-62183390D02*
X86911905Y-61992914D01*
X86911905Y-61992914D02*
X86959524Y-61897676D01*
X86959524Y-61897676D02*
X87054762Y-61802438D01*
X87054762Y-61802438D02*
X87197619Y-61754819D01*
X87197619Y-61754819D02*
X87292857Y-61754819D01*
X87292857Y-61754819D02*
X87435714Y-61802438D01*
X87435714Y-61802438D02*
X87483333Y-61850057D01*
X88054762Y-62183390D02*
X87959524Y-62135771D01*
X87959524Y-62135771D02*
X87911905Y-62088152D01*
X87911905Y-62088152D02*
X87864286Y-61992914D01*
X87864286Y-61992914D02*
X87864286Y-61945295D01*
X87864286Y-61945295D02*
X87911905Y-61850057D01*
X87911905Y-61850057D02*
X87959524Y-61802438D01*
X87959524Y-61802438D02*
X88054762Y-61754819D01*
X88054762Y-61754819D02*
X88245238Y-61754819D01*
X88245238Y-61754819D02*
X88340476Y-61802438D01*
X88340476Y-61802438D02*
X88388095Y-61850057D01*
X88388095Y-61850057D02*
X88435714Y-61945295D01*
X88435714Y-61945295D02*
X88435714Y-61992914D01*
X88435714Y-61992914D02*
X88388095Y-62088152D01*
X88388095Y-62088152D02*
X88340476Y-62135771D01*
X88340476Y-62135771D02*
X88245238Y-62183390D01*
X88245238Y-62183390D02*
X88054762Y-62183390D01*
X88054762Y-62183390D02*
X87959524Y-62231009D01*
X87959524Y-62231009D02*
X87911905Y-62278628D01*
X87911905Y-62278628D02*
X87864286Y-62373866D01*
X87864286Y-62373866D02*
X87864286Y-62564342D01*
X87864286Y-62564342D02*
X87911905Y-62659580D01*
X87911905Y-62659580D02*
X87959524Y-62707200D01*
X87959524Y-62707200D02*
X88054762Y-62754819D01*
X88054762Y-62754819D02*
X88245238Y-62754819D01*
X88245238Y-62754819D02*
X88340476Y-62707200D01*
X88340476Y-62707200D02*
X88388095Y-62659580D01*
X88388095Y-62659580D02*
X88435714Y-62564342D01*
X88435714Y-62564342D02*
X88435714Y-62373866D01*
X88435714Y-62373866D02*
X88388095Y-62278628D01*
X88388095Y-62278628D02*
X88340476Y-62231009D01*
X88340476Y-62231009D02*
X88245238Y-62183390D01*
X87454819Y-52481428D02*
X86978628Y-52814761D01*
X87454819Y-53052856D02*
X86454819Y-53052856D01*
X86454819Y-53052856D02*
X86454819Y-52671904D01*
X86454819Y-52671904D02*
X86502438Y-52576666D01*
X86502438Y-52576666D02*
X86550057Y-52529047D01*
X86550057Y-52529047D02*
X86645295Y-52481428D01*
X86645295Y-52481428D02*
X86788152Y-52481428D01*
X86788152Y-52481428D02*
X86883390Y-52529047D01*
X86883390Y-52529047D02*
X86931009Y-52576666D01*
X86931009Y-52576666D02*
X86978628Y-52671904D01*
X86978628Y-52671904D02*
X86978628Y-53052856D01*
X87407200Y-52100475D02*
X87454819Y-52005237D01*
X87454819Y-52005237D02*
X87454819Y-51814761D01*
X87454819Y-51814761D02*
X87407200Y-51719523D01*
X87407200Y-51719523D02*
X87311961Y-51671904D01*
X87311961Y-51671904D02*
X87264342Y-51671904D01*
X87264342Y-51671904D02*
X87169104Y-51719523D01*
X87169104Y-51719523D02*
X87121485Y-51814761D01*
X87121485Y-51814761D02*
X87121485Y-51957618D01*
X87121485Y-51957618D02*
X87073866Y-52052856D01*
X87073866Y-52052856D02*
X86978628Y-52100475D01*
X86978628Y-52100475D02*
X86931009Y-52100475D01*
X86931009Y-52100475D02*
X86835771Y-52052856D01*
X86835771Y-52052856D02*
X86788152Y-51957618D01*
X86788152Y-51957618D02*
X86788152Y-51814761D01*
X86788152Y-51814761D02*
X86835771Y-51719523D01*
X87454819Y-50719523D02*
X87454819Y-51290951D01*
X87454819Y-51005237D02*
X86454819Y-51005237D01*
X86454819Y-51005237D02*
X86597676Y-51100475D01*
X86597676Y-51100475D02*
X86692914Y-51195713D01*
X86692914Y-51195713D02*
X86740533Y-51290951D01*
X63109580Y-83416666D02*
X63157200Y-83464285D01*
X63157200Y-83464285D02*
X63204819Y-83607142D01*
X63204819Y-83607142D02*
X63204819Y-83702380D01*
X63204819Y-83702380D02*
X63157200Y-83845237D01*
X63157200Y-83845237D02*
X63061961Y-83940475D01*
X63061961Y-83940475D02*
X62966723Y-83988094D01*
X62966723Y-83988094D02*
X62776247Y-84035713D01*
X62776247Y-84035713D02*
X62633390Y-84035713D01*
X62633390Y-84035713D02*
X62442914Y-83988094D01*
X62442914Y-83988094D02*
X62347676Y-83940475D01*
X62347676Y-83940475D02*
X62252438Y-83845237D01*
X62252438Y-83845237D02*
X62204819Y-83702380D01*
X62204819Y-83702380D02*
X62204819Y-83607142D01*
X62204819Y-83607142D02*
X62252438Y-83464285D01*
X62252438Y-83464285D02*
X62300057Y-83416666D01*
X62538152Y-82559523D02*
X63204819Y-82559523D01*
X62157200Y-82797618D02*
X62871485Y-83035713D01*
X62871485Y-83035713D02*
X62871485Y-82416666D01*
X73247618Y-63379819D02*
X72914285Y-62903628D01*
X72676190Y-63379819D02*
X72676190Y-62379819D01*
X72676190Y-62379819D02*
X73057142Y-62379819D01*
X73057142Y-62379819D02*
X73152380Y-62427438D01*
X73152380Y-62427438D02*
X73199999Y-62475057D01*
X73199999Y-62475057D02*
X73247618Y-62570295D01*
X73247618Y-62570295D02*
X73247618Y-62713152D01*
X73247618Y-62713152D02*
X73199999Y-62808390D01*
X73199999Y-62808390D02*
X73152380Y-62856009D01*
X73152380Y-62856009D02*
X73057142Y-62903628D01*
X73057142Y-62903628D02*
X72676190Y-62903628D01*
X73533333Y-62713152D02*
X73914285Y-62713152D01*
X73676190Y-63379819D02*
X73676190Y-62522676D01*
X73676190Y-62522676D02*
X73723809Y-62427438D01*
X73723809Y-62427438D02*
X73819047Y-62379819D01*
X73819047Y-62379819D02*
X73914285Y-62379819D01*
X74771428Y-63379819D02*
X74200000Y-63379819D01*
X74485714Y-63379819D02*
X74485714Y-62379819D01*
X74485714Y-62379819D02*
X74390476Y-62522676D01*
X74390476Y-62522676D02*
X74295238Y-62617914D01*
X74295238Y-62617914D02*
X74200000Y-62665533D01*
X99361905Y-90404819D02*
X99361905Y-89404819D01*
X99361905Y-89404819D02*
X99600000Y-89404819D01*
X99600000Y-89404819D02*
X99742857Y-89452438D01*
X99742857Y-89452438D02*
X99838095Y-89547676D01*
X99838095Y-89547676D02*
X99885714Y-89642914D01*
X99885714Y-89642914D02*
X99933333Y-89833390D01*
X99933333Y-89833390D02*
X99933333Y-89976247D01*
X99933333Y-89976247D02*
X99885714Y-90166723D01*
X99885714Y-90166723D02*
X99838095Y-90261961D01*
X99838095Y-90261961D02*
X99742857Y-90357200D01*
X99742857Y-90357200D02*
X99600000Y-90404819D01*
X99600000Y-90404819D02*
X99361905Y-90404819D01*
X100314286Y-89500057D02*
X100361905Y-89452438D01*
X100361905Y-89452438D02*
X100457143Y-89404819D01*
X100457143Y-89404819D02*
X100695238Y-89404819D01*
X100695238Y-89404819D02*
X100790476Y-89452438D01*
X100790476Y-89452438D02*
X100838095Y-89500057D01*
X100838095Y-89500057D02*
X100885714Y-89595295D01*
X100885714Y-89595295D02*
X100885714Y-89690533D01*
X100885714Y-89690533D02*
X100838095Y-89833390D01*
X100838095Y-89833390D02*
X100266667Y-90404819D01*
X100266667Y-90404819D02*
X100885714Y-90404819D01*
X94258095Y-85354819D02*
X94258095Y-84354819D01*
X94829523Y-85354819D02*
X94400952Y-84783390D01*
X94829523Y-84354819D02*
X94258095Y-84926247D01*
X80881905Y-85154819D02*
X80881905Y-84154819D01*
X80881905Y-84154819D02*
X81120000Y-84154819D01*
X81120000Y-84154819D02*
X81262857Y-84202438D01*
X81262857Y-84202438D02*
X81358095Y-84297676D01*
X81358095Y-84297676D02*
X81405714Y-84392914D01*
X81405714Y-84392914D02*
X81453333Y-84583390D01*
X81453333Y-84583390D02*
X81453333Y-84726247D01*
X81453333Y-84726247D02*
X81405714Y-84916723D01*
X81405714Y-84916723D02*
X81358095Y-85011961D01*
X81358095Y-85011961D02*
X81262857Y-85107200D01*
X81262857Y-85107200D02*
X81120000Y-85154819D01*
X81120000Y-85154819D02*
X80881905Y-85154819D01*
X82358095Y-84154819D02*
X81881905Y-84154819D01*
X81881905Y-84154819D02*
X81834286Y-84631009D01*
X81834286Y-84631009D02*
X81881905Y-84583390D01*
X81881905Y-84583390D02*
X81977143Y-84535771D01*
X81977143Y-84535771D02*
X82215238Y-84535771D01*
X82215238Y-84535771D02*
X82310476Y-84583390D01*
X82310476Y-84583390D02*
X82358095Y-84631009D01*
X82358095Y-84631009D02*
X82405714Y-84726247D01*
X82405714Y-84726247D02*
X82405714Y-84964342D01*
X82405714Y-84964342D02*
X82358095Y-85059580D01*
X82358095Y-85059580D02*
X82310476Y-85107200D01*
X82310476Y-85107200D02*
X82215238Y-85154819D01*
X82215238Y-85154819D02*
X81977143Y-85154819D01*
X81977143Y-85154819D02*
X81881905Y-85107200D01*
X81881905Y-85107200D02*
X81834286Y-85059580D01*
X74108095Y-85054819D02*
X74108095Y-84054819D01*
X74679523Y-85054819D02*
X74250952Y-84483390D01*
X74679523Y-84054819D02*
X74108095Y-84626247D01*
X89804819Y-77621904D02*
X90614342Y-77621904D01*
X90614342Y-77621904D02*
X90709580Y-77574285D01*
X90709580Y-77574285D02*
X90757200Y-77526666D01*
X90757200Y-77526666D02*
X90804819Y-77431428D01*
X90804819Y-77431428D02*
X90804819Y-77240952D01*
X90804819Y-77240952D02*
X90757200Y-77145714D01*
X90757200Y-77145714D02*
X90709580Y-77098095D01*
X90709580Y-77098095D02*
X90614342Y-77050476D01*
X90614342Y-77050476D02*
X89804819Y-77050476D01*
X89900057Y-76621904D02*
X89852438Y-76574285D01*
X89852438Y-76574285D02*
X89804819Y-76479047D01*
X89804819Y-76479047D02*
X89804819Y-76240952D01*
X89804819Y-76240952D02*
X89852438Y-76145714D01*
X89852438Y-76145714D02*
X89900057Y-76098095D01*
X89900057Y-76098095D02*
X89995295Y-76050476D01*
X89995295Y-76050476D02*
X90090533Y-76050476D01*
X90090533Y-76050476D02*
X90233390Y-76098095D01*
X90233390Y-76098095D02*
X90804819Y-76669523D01*
X90804819Y-76669523D02*
X90804819Y-76050476D01*
X64333333Y-68359580D02*
X64285714Y-68407200D01*
X64285714Y-68407200D02*
X64142857Y-68454819D01*
X64142857Y-68454819D02*
X64047619Y-68454819D01*
X64047619Y-68454819D02*
X63904762Y-68407200D01*
X63904762Y-68407200D02*
X63809524Y-68311961D01*
X63809524Y-68311961D02*
X63761905Y-68216723D01*
X63761905Y-68216723D02*
X63714286Y-68026247D01*
X63714286Y-68026247D02*
X63714286Y-67883390D01*
X63714286Y-67883390D02*
X63761905Y-67692914D01*
X63761905Y-67692914D02*
X63809524Y-67597676D01*
X63809524Y-67597676D02*
X63904762Y-67502438D01*
X63904762Y-67502438D02*
X64047619Y-67454819D01*
X64047619Y-67454819D02*
X64142857Y-67454819D01*
X64142857Y-67454819D02*
X64285714Y-67502438D01*
X64285714Y-67502438D02*
X64333333Y-67550057D01*
X64809524Y-68454819D02*
X65000000Y-68454819D01*
X65000000Y-68454819D02*
X65095238Y-68407200D01*
X65095238Y-68407200D02*
X65142857Y-68359580D01*
X65142857Y-68359580D02*
X65238095Y-68216723D01*
X65238095Y-68216723D02*
X65285714Y-68026247D01*
X65285714Y-68026247D02*
X65285714Y-67645295D01*
X65285714Y-67645295D02*
X65238095Y-67550057D01*
X65238095Y-67550057D02*
X65190476Y-67502438D01*
X65190476Y-67502438D02*
X65095238Y-67454819D01*
X65095238Y-67454819D02*
X64904762Y-67454819D01*
X64904762Y-67454819D02*
X64809524Y-67502438D01*
X64809524Y-67502438D02*
X64761905Y-67550057D01*
X64761905Y-67550057D02*
X64714286Y-67645295D01*
X64714286Y-67645295D02*
X64714286Y-67883390D01*
X64714286Y-67883390D02*
X64761905Y-67978628D01*
X64761905Y-67978628D02*
X64809524Y-68026247D01*
X64809524Y-68026247D02*
X64904762Y-68073866D01*
X64904762Y-68073866D02*
X65095238Y-68073866D01*
X65095238Y-68073866D02*
X65190476Y-68026247D01*
X65190476Y-68026247D02*
X65238095Y-67978628D01*
X65238095Y-67978628D02*
X65285714Y-67883390D01*
X74454819Y-55318094D02*
X73454819Y-55318094D01*
X73454819Y-55318094D02*
X73454819Y-55079999D01*
X73454819Y-55079999D02*
X73502438Y-54937142D01*
X73502438Y-54937142D02*
X73597676Y-54841904D01*
X73597676Y-54841904D02*
X73692914Y-54794285D01*
X73692914Y-54794285D02*
X73883390Y-54746666D01*
X73883390Y-54746666D02*
X74026247Y-54746666D01*
X74026247Y-54746666D02*
X74216723Y-54794285D01*
X74216723Y-54794285D02*
X74311961Y-54841904D01*
X74311961Y-54841904D02*
X74407200Y-54937142D01*
X74407200Y-54937142D02*
X74454819Y-55079999D01*
X74454819Y-55079999D02*
X74454819Y-55318094D01*
X73788152Y-53889523D02*
X74454819Y-53889523D01*
X73407200Y-54127618D02*
X74121485Y-54365713D01*
X74121485Y-54365713D02*
X74121485Y-53746666D01*
X76554819Y-49761904D02*
X75554819Y-49761904D01*
X76554819Y-49190476D02*
X75983390Y-49619047D01*
X75554819Y-49190476D02*
X76126247Y-49761904D01*
X76359580Y-77666666D02*
X76407200Y-77714285D01*
X76407200Y-77714285D02*
X76454819Y-77857142D01*
X76454819Y-77857142D02*
X76454819Y-77952380D01*
X76454819Y-77952380D02*
X76407200Y-78095237D01*
X76407200Y-78095237D02*
X76311961Y-78190475D01*
X76311961Y-78190475D02*
X76216723Y-78238094D01*
X76216723Y-78238094D02*
X76026247Y-78285713D01*
X76026247Y-78285713D02*
X75883390Y-78285713D01*
X75883390Y-78285713D02*
X75692914Y-78238094D01*
X75692914Y-78238094D02*
X75597676Y-78190475D01*
X75597676Y-78190475D02*
X75502438Y-78095237D01*
X75502438Y-78095237D02*
X75454819Y-77952380D01*
X75454819Y-77952380D02*
X75454819Y-77857142D01*
X75454819Y-77857142D02*
X75502438Y-77714285D01*
X75502438Y-77714285D02*
X75550057Y-77666666D01*
X76454819Y-76714285D02*
X76454819Y-77285713D01*
X76454819Y-76999999D02*
X75454819Y-76999999D01*
X75454819Y-76999999D02*
X75597676Y-77095237D01*
X75597676Y-77095237D02*
X75692914Y-77190475D01*
X75692914Y-77190475D02*
X75740533Y-77285713D01*
X64833333Y-77265369D02*
X64500000Y-76789178D01*
X64261905Y-77265369D02*
X64261905Y-76265369D01*
X64261905Y-76265369D02*
X64642857Y-76265369D01*
X64642857Y-76265369D02*
X64738095Y-76312988D01*
X64738095Y-76312988D02*
X64785714Y-76360607D01*
X64785714Y-76360607D02*
X64833333Y-76455845D01*
X64833333Y-76455845D02*
X64833333Y-76598702D01*
X64833333Y-76598702D02*
X64785714Y-76693940D01*
X64785714Y-76693940D02*
X64738095Y-76741559D01*
X64738095Y-76741559D02*
X64642857Y-76789178D01*
X64642857Y-76789178D02*
X64261905Y-76789178D01*
X65785714Y-77265369D02*
X65214286Y-77265369D01*
X65500000Y-77265369D02*
X65500000Y-76265369D01*
X65500000Y-76265369D02*
X65404762Y-76408226D01*
X65404762Y-76408226D02*
X65309524Y-76503464D01*
X65309524Y-76503464D02*
X65214286Y-76551083D01*
X76554819Y-72661904D02*
X77364342Y-72661904D01*
X77364342Y-72661904D02*
X77459580Y-72614285D01*
X77459580Y-72614285D02*
X77507200Y-72566666D01*
X77507200Y-72566666D02*
X77554819Y-72471428D01*
X77554819Y-72471428D02*
X77554819Y-72280952D01*
X77554819Y-72280952D02*
X77507200Y-72185714D01*
X77507200Y-72185714D02*
X77459580Y-72138095D01*
X77459580Y-72138095D02*
X77364342Y-72090476D01*
X77364342Y-72090476D02*
X76554819Y-72090476D01*
X77554819Y-71090476D02*
X77554819Y-71661904D01*
X77554819Y-71376190D02*
X76554819Y-71376190D01*
X76554819Y-71376190D02*
X76697676Y-71471428D01*
X76697676Y-71471428D02*
X76792914Y-71566666D01*
X76792914Y-71566666D02*
X76840533Y-71661904D01*
X82009580Y-66916666D02*
X82057200Y-66964285D01*
X82057200Y-66964285D02*
X82104819Y-67107142D01*
X82104819Y-67107142D02*
X82104819Y-67202380D01*
X82104819Y-67202380D02*
X82057200Y-67345237D01*
X82057200Y-67345237D02*
X81961961Y-67440475D01*
X81961961Y-67440475D02*
X81866723Y-67488094D01*
X81866723Y-67488094D02*
X81676247Y-67535713D01*
X81676247Y-67535713D02*
X81533390Y-67535713D01*
X81533390Y-67535713D02*
X81342914Y-67488094D01*
X81342914Y-67488094D02*
X81247676Y-67440475D01*
X81247676Y-67440475D02*
X81152438Y-67345237D01*
X81152438Y-67345237D02*
X81104819Y-67202380D01*
X81104819Y-67202380D02*
X81104819Y-67107142D01*
X81104819Y-67107142D02*
X81152438Y-66964285D01*
X81152438Y-66964285D02*
X81200057Y-66916666D01*
X81104819Y-66583332D02*
X81104819Y-65964285D01*
X81104819Y-65964285D02*
X81485771Y-66297618D01*
X81485771Y-66297618D02*
X81485771Y-66154761D01*
X81485771Y-66154761D02*
X81533390Y-66059523D01*
X81533390Y-66059523D02*
X81581009Y-66011904D01*
X81581009Y-66011904D02*
X81676247Y-65964285D01*
X81676247Y-65964285D02*
X81914342Y-65964285D01*
X81914342Y-65964285D02*
X82009580Y-66011904D01*
X82009580Y-66011904D02*
X82057200Y-66059523D01*
X82057200Y-66059523D02*
X82104819Y-66154761D01*
X82104819Y-66154761D02*
X82104819Y-66440475D01*
X82104819Y-66440475D02*
X82057200Y-66535713D01*
X82057200Y-66535713D02*
X82009580Y-66583332D01*
X58238095Y-105754819D02*
X58238095Y-104754819D01*
X58238095Y-105231009D02*
X58809523Y-105231009D01*
X58809523Y-105754819D02*
X58809523Y-104754819D01*
X59809523Y-105754819D02*
X59238095Y-105754819D01*
X59523809Y-105754819D02*
X59523809Y-104754819D01*
X59523809Y-104754819D02*
X59428571Y-104897676D01*
X59428571Y-104897676D02*
X59333333Y-104992914D01*
X59333333Y-104992914D02*
X59238095Y-105040533D01*
X79314286Y-73954819D02*
X79885714Y-73954819D01*
X79600000Y-74954819D02*
X79600000Y-73954819D01*
X80219048Y-74954819D02*
X80219048Y-73954819D01*
X80219048Y-73954819D02*
X80600000Y-73954819D01*
X80600000Y-73954819D02*
X80695238Y-74002438D01*
X80695238Y-74002438D02*
X80742857Y-74050057D01*
X80742857Y-74050057D02*
X80790476Y-74145295D01*
X80790476Y-74145295D02*
X80790476Y-74288152D01*
X80790476Y-74288152D02*
X80742857Y-74383390D01*
X80742857Y-74383390D02*
X80695238Y-74431009D01*
X80695238Y-74431009D02*
X80600000Y-74478628D01*
X80600000Y-74478628D02*
X80219048Y-74478628D01*
X81409524Y-73954819D02*
X81600000Y-73954819D01*
X81600000Y-73954819D02*
X81695238Y-74002438D01*
X81695238Y-74002438D02*
X81790476Y-74097676D01*
X81790476Y-74097676D02*
X81838095Y-74288152D01*
X81838095Y-74288152D02*
X81838095Y-74621485D01*
X81838095Y-74621485D02*
X81790476Y-74811961D01*
X81790476Y-74811961D02*
X81695238Y-74907200D01*
X81695238Y-74907200D02*
X81600000Y-74954819D01*
X81600000Y-74954819D02*
X81409524Y-74954819D01*
X81409524Y-74954819D02*
X81314286Y-74907200D01*
X81314286Y-74907200D02*
X81219048Y-74811961D01*
X81219048Y-74811961D02*
X81171429Y-74621485D01*
X81171429Y-74621485D02*
X81171429Y-74288152D01*
X81171429Y-74288152D02*
X81219048Y-74097676D01*
X81219048Y-74097676D02*
X81314286Y-74002438D01*
X81314286Y-74002438D02*
X81409524Y-73954819D01*
X82266667Y-74954819D02*
X82266667Y-73954819D01*
X82266667Y-73954819D02*
X82647619Y-73954819D01*
X82647619Y-73954819D02*
X82742857Y-74002438D01*
X82742857Y-74002438D02*
X82790476Y-74050057D01*
X82790476Y-74050057D02*
X82838095Y-74145295D01*
X82838095Y-74145295D02*
X82838095Y-74288152D01*
X82838095Y-74288152D02*
X82790476Y-74383390D01*
X82790476Y-74383390D02*
X82742857Y-74431009D01*
X82742857Y-74431009D02*
X82647619Y-74478628D01*
X82647619Y-74478628D02*
X82266667Y-74478628D01*
X83219048Y-74050057D02*
X83266667Y-74002438D01*
X83266667Y-74002438D02*
X83361905Y-73954819D01*
X83361905Y-73954819D02*
X83600000Y-73954819D01*
X83600000Y-73954819D02*
X83695238Y-74002438D01*
X83695238Y-74002438D02*
X83742857Y-74050057D01*
X83742857Y-74050057D02*
X83790476Y-74145295D01*
X83790476Y-74145295D02*
X83790476Y-74240533D01*
X83790476Y-74240533D02*
X83742857Y-74383390D01*
X83742857Y-74383390D02*
X83171429Y-74954819D01*
X83171429Y-74954819D02*
X83790476Y-74954819D01*
X94374819Y-53873333D02*
X95089104Y-53873333D01*
X95089104Y-53873333D02*
X95231961Y-53920952D01*
X95231961Y-53920952D02*
X95327200Y-54016190D01*
X95327200Y-54016190D02*
X95374819Y-54159047D01*
X95374819Y-54159047D02*
X95374819Y-54254285D01*
X95374819Y-52873333D02*
X95374819Y-53444761D01*
X95374819Y-53159047D02*
X94374819Y-53159047D01*
X94374819Y-53159047D02*
X94517676Y-53254285D01*
X94517676Y-53254285D02*
X94612914Y-53349523D01*
X94612914Y-53349523D02*
X94660533Y-53444761D01*
X108854819Y-100404761D02*
X108854819Y-99833333D01*
X109854819Y-100119047D02*
X108854819Y-100119047D01*
X109854819Y-99499999D02*
X108854819Y-99499999D01*
X108854819Y-99499999D02*
X108854819Y-99119047D01*
X108854819Y-99119047D02*
X108902438Y-99023809D01*
X108902438Y-99023809D02*
X108950057Y-98976190D01*
X108950057Y-98976190D02*
X109045295Y-98928571D01*
X109045295Y-98928571D02*
X109188152Y-98928571D01*
X109188152Y-98928571D02*
X109283390Y-98976190D01*
X109283390Y-98976190D02*
X109331009Y-99023809D01*
X109331009Y-99023809D02*
X109378628Y-99119047D01*
X109378628Y-99119047D02*
X109378628Y-99499999D01*
X108854819Y-98595237D02*
X108854819Y-97976190D01*
X108854819Y-97976190D02*
X109235771Y-98309523D01*
X109235771Y-98309523D02*
X109235771Y-98166666D01*
X109235771Y-98166666D02*
X109283390Y-98071428D01*
X109283390Y-98071428D02*
X109331009Y-98023809D01*
X109331009Y-98023809D02*
X109426247Y-97976190D01*
X109426247Y-97976190D02*
X109664342Y-97976190D01*
X109664342Y-97976190D02*
X109759580Y-98023809D01*
X109759580Y-98023809D02*
X109807200Y-98071428D01*
X109807200Y-98071428D02*
X109854819Y-98166666D01*
X109854819Y-98166666D02*
X109854819Y-98452380D01*
X109854819Y-98452380D02*
X109807200Y-98547618D01*
X109807200Y-98547618D02*
X109759580Y-98595237D01*
X109759580Y-97547618D02*
X109807200Y-97499999D01*
X109807200Y-97499999D02*
X109854819Y-97547618D01*
X109854819Y-97547618D02*
X109807200Y-97595237D01*
X109807200Y-97595237D02*
X109759580Y-97547618D01*
X109759580Y-97547618D02*
X109854819Y-97547618D01*
X108854819Y-97166666D02*
X108854819Y-96547619D01*
X108854819Y-96547619D02*
X109235771Y-96880952D01*
X109235771Y-96880952D02*
X109235771Y-96738095D01*
X109235771Y-96738095D02*
X109283390Y-96642857D01*
X109283390Y-96642857D02*
X109331009Y-96595238D01*
X109331009Y-96595238D02*
X109426247Y-96547619D01*
X109426247Y-96547619D02*
X109664342Y-96547619D01*
X109664342Y-96547619D02*
X109759580Y-96595238D01*
X109759580Y-96595238D02*
X109807200Y-96642857D01*
X109807200Y-96642857D02*
X109854819Y-96738095D01*
X109854819Y-96738095D02*
X109854819Y-97023809D01*
X109854819Y-97023809D02*
X109807200Y-97119047D01*
X109807200Y-97119047D02*
X109759580Y-97166666D01*
X108854819Y-96261904D02*
X109854819Y-95928571D01*
X109854819Y-95928571D02*
X108854819Y-95595238D01*
X100333333Y-95959580D02*
X100285714Y-96007200D01*
X100285714Y-96007200D02*
X100142857Y-96054819D01*
X100142857Y-96054819D02*
X100047619Y-96054819D01*
X100047619Y-96054819D02*
X99904762Y-96007200D01*
X99904762Y-96007200D02*
X99809524Y-95911961D01*
X99809524Y-95911961D02*
X99761905Y-95816723D01*
X99761905Y-95816723D02*
X99714286Y-95626247D01*
X99714286Y-95626247D02*
X99714286Y-95483390D01*
X99714286Y-95483390D02*
X99761905Y-95292914D01*
X99761905Y-95292914D02*
X99809524Y-95197676D01*
X99809524Y-95197676D02*
X99904762Y-95102438D01*
X99904762Y-95102438D02*
X100047619Y-95054819D01*
X100047619Y-95054819D02*
X100142857Y-95054819D01*
X100142857Y-95054819D02*
X100285714Y-95102438D01*
X100285714Y-95102438D02*
X100333333Y-95150057D01*
X101190476Y-95054819D02*
X101000000Y-95054819D01*
X101000000Y-95054819D02*
X100904762Y-95102438D01*
X100904762Y-95102438D02*
X100857143Y-95150057D01*
X100857143Y-95150057D02*
X100761905Y-95292914D01*
X100761905Y-95292914D02*
X100714286Y-95483390D01*
X100714286Y-95483390D02*
X100714286Y-95864342D01*
X100714286Y-95864342D02*
X100761905Y-95959580D01*
X100761905Y-95959580D02*
X100809524Y-96007200D01*
X100809524Y-96007200D02*
X100904762Y-96054819D01*
X100904762Y-96054819D02*
X101095238Y-96054819D01*
X101095238Y-96054819D02*
X101190476Y-96007200D01*
X101190476Y-96007200D02*
X101238095Y-95959580D01*
X101238095Y-95959580D02*
X101285714Y-95864342D01*
X101285714Y-95864342D02*
X101285714Y-95626247D01*
X101285714Y-95626247D02*
X101238095Y-95531009D01*
X101238095Y-95531009D02*
X101190476Y-95483390D01*
X101190476Y-95483390D02*
X101095238Y-95435771D01*
X101095238Y-95435771D02*
X100904762Y-95435771D01*
X100904762Y-95435771D02*
X100809524Y-95483390D01*
X100809524Y-95483390D02*
X100761905Y-95531009D01*
X100761905Y-95531009D02*
X100714286Y-95626247D01*
X83987618Y-81054819D02*
X83654285Y-80578628D01*
X83416190Y-81054819D02*
X83416190Y-80054819D01*
X83416190Y-80054819D02*
X83797142Y-80054819D01*
X83797142Y-80054819D02*
X83892380Y-80102438D01*
X83892380Y-80102438D02*
X83939999Y-80150057D01*
X83939999Y-80150057D02*
X83987618Y-80245295D01*
X83987618Y-80245295D02*
X83987618Y-80388152D01*
X83987618Y-80388152D02*
X83939999Y-80483390D01*
X83939999Y-80483390D02*
X83892380Y-80531009D01*
X83892380Y-80531009D02*
X83797142Y-80578628D01*
X83797142Y-80578628D02*
X83416190Y-80578628D01*
X84273333Y-80388152D02*
X84654285Y-80388152D01*
X84416190Y-81054819D02*
X84416190Y-80197676D01*
X84416190Y-80197676D02*
X84463809Y-80102438D01*
X84463809Y-80102438D02*
X84559047Y-80054819D01*
X84559047Y-80054819D02*
X84654285Y-80054819D01*
X84940000Y-80150057D02*
X84987619Y-80102438D01*
X84987619Y-80102438D02*
X85082857Y-80054819D01*
X85082857Y-80054819D02*
X85320952Y-80054819D01*
X85320952Y-80054819D02*
X85416190Y-80102438D01*
X85416190Y-80102438D02*
X85463809Y-80150057D01*
X85463809Y-80150057D02*
X85511428Y-80245295D01*
X85511428Y-80245295D02*
X85511428Y-80340533D01*
X85511428Y-80340533D02*
X85463809Y-80483390D01*
X85463809Y-80483390D02*
X84892381Y-81054819D01*
X84892381Y-81054819D02*
X85511428Y-81054819D01*
X83133333Y-100759580D02*
X83085714Y-100807200D01*
X83085714Y-100807200D02*
X82942857Y-100854819D01*
X82942857Y-100854819D02*
X82847619Y-100854819D01*
X82847619Y-100854819D02*
X82704762Y-100807200D01*
X82704762Y-100807200D02*
X82609524Y-100711961D01*
X82609524Y-100711961D02*
X82561905Y-100616723D01*
X82561905Y-100616723D02*
X82514286Y-100426247D01*
X82514286Y-100426247D02*
X82514286Y-100283390D01*
X82514286Y-100283390D02*
X82561905Y-100092914D01*
X82561905Y-100092914D02*
X82609524Y-99997676D01*
X82609524Y-99997676D02*
X82704762Y-99902438D01*
X82704762Y-99902438D02*
X82847619Y-99854819D01*
X82847619Y-99854819D02*
X82942857Y-99854819D01*
X82942857Y-99854819D02*
X83085714Y-99902438D01*
X83085714Y-99902438D02*
X83133333Y-99950057D01*
X84038095Y-99854819D02*
X83561905Y-99854819D01*
X83561905Y-99854819D02*
X83514286Y-100331009D01*
X83514286Y-100331009D02*
X83561905Y-100283390D01*
X83561905Y-100283390D02*
X83657143Y-100235771D01*
X83657143Y-100235771D02*
X83895238Y-100235771D01*
X83895238Y-100235771D02*
X83990476Y-100283390D01*
X83990476Y-100283390D02*
X84038095Y-100331009D01*
X84038095Y-100331009D02*
X84085714Y-100426247D01*
X84085714Y-100426247D02*
X84085714Y-100664342D01*
X84085714Y-100664342D02*
X84038095Y-100759580D01*
X84038095Y-100759580D02*
X83990476Y-100807200D01*
X83990476Y-100807200D02*
X83895238Y-100854819D01*
X83895238Y-100854819D02*
X83657143Y-100854819D01*
X83657143Y-100854819D02*
X83561905Y-100807200D01*
X83561905Y-100807200D02*
X83514286Y-100759580D01*
X67984819Y-55238094D02*
X66984819Y-55238094D01*
X66984819Y-55238094D02*
X66984819Y-54999999D01*
X66984819Y-54999999D02*
X67032438Y-54857142D01*
X67032438Y-54857142D02*
X67127676Y-54761904D01*
X67127676Y-54761904D02*
X67222914Y-54714285D01*
X67222914Y-54714285D02*
X67413390Y-54666666D01*
X67413390Y-54666666D02*
X67556247Y-54666666D01*
X67556247Y-54666666D02*
X67746723Y-54714285D01*
X67746723Y-54714285D02*
X67841961Y-54761904D01*
X67841961Y-54761904D02*
X67937200Y-54857142D01*
X67937200Y-54857142D02*
X67984819Y-54999999D01*
X67984819Y-54999999D02*
X67984819Y-55238094D01*
X66984819Y-54333332D02*
X66984819Y-53714285D01*
X66984819Y-53714285D02*
X67365771Y-54047618D01*
X67365771Y-54047618D02*
X67365771Y-53904761D01*
X67365771Y-53904761D02*
X67413390Y-53809523D01*
X67413390Y-53809523D02*
X67461009Y-53761904D01*
X67461009Y-53761904D02*
X67556247Y-53714285D01*
X67556247Y-53714285D02*
X67794342Y-53714285D01*
X67794342Y-53714285D02*
X67889580Y-53761904D01*
X67889580Y-53761904D02*
X67937200Y-53809523D01*
X67937200Y-53809523D02*
X67984819Y-53904761D01*
X67984819Y-53904761D02*
X67984819Y-54190475D01*
X67984819Y-54190475D02*
X67937200Y-54285713D01*
X67937200Y-54285713D02*
X67889580Y-54333332D01*
X68354819Y-59841904D02*
X67354819Y-59841904D01*
X68354819Y-59270476D02*
X67783390Y-59699047D01*
X67354819Y-59270476D02*
X67926247Y-59841904D01*
D12*
%TO.C,R3*%
X93330000Y-63730000D02*
X93330000Y-70270000D01*
X93330000Y-70270000D02*
X93660000Y-70270000D01*
X93660000Y-63730000D02*
X93330000Y-63730000D01*
X95740000Y-63730000D02*
X96070000Y-63730000D01*
X96070000Y-63730000D02*
X96070000Y-70270000D01*
X96070000Y-70270000D02*
X95740000Y-70270000D01*
%TO.C,D1*%
X80780000Y-50530000D02*
X80780000Y-58370000D01*
X80780000Y-58370000D02*
X81260000Y-58370000D01*
X81260000Y-50530000D02*
X80780000Y-50530000D01*
X84140000Y-50530000D02*
X84620000Y-50530000D01*
X84620000Y-50530000D02*
X84620000Y-58370000D01*
X84620000Y-51670000D02*
X80780000Y-51670000D01*
X84620000Y-51790000D02*
X80780000Y-51790000D01*
X84620000Y-51910000D02*
X80780000Y-51910000D01*
X84620000Y-58370000D02*
X84140000Y-58370000D01*
%TO.C,TPCH1*%
X89750000Y-58250000D02*
X92650000Y-58250000D01*
X89750000Y-61150000D02*
X89750000Y-58250000D01*
X92650000Y-58250000D02*
X92650000Y-61150000D01*
X92650000Y-61150000D02*
X89750000Y-61150000D01*
%TO.C,Q1*%
X82640000Y-105590000D02*
X83640000Y-105590000D01*
X82640000Y-107410000D02*
X82640000Y-105590000D01*
X82690000Y-107410000D02*
X82640000Y-107410000D01*
X84590000Y-107410000D02*
X83810000Y-107410000D01*
X84760000Y-105590000D02*
X85760000Y-105590000D01*
X85760000Y-105590000D02*
X85760000Y-107410000D01*
X85760000Y-107410000D02*
X85710000Y-107410000D01*
X84150000Y-108190000D02*
X83820000Y-107950000D01*
X84150000Y-107710000D01*
X84150000Y-108190000D01*
G36*
X84150000Y-108190000D02*
G01*
X83820000Y-107950000D01*
X84150000Y-107710000D01*
X84150000Y-108190000D01*
G37*
%TO.C,J4*%
X65480000Y-104197500D02*
X65480000Y-114937500D01*
X65480000Y-104197500D02*
X80720000Y-104197500D01*
X65480000Y-107817500D02*
X80720000Y-107817500D01*
X65480000Y-108817500D02*
X80720000Y-108817500D01*
X65480000Y-112817500D02*
X80720000Y-112817500D01*
X65480000Y-114937500D02*
X67800000Y-114937500D01*
X68400000Y-114937500D02*
X80720000Y-114937500D01*
X80720000Y-104197500D02*
X80720000Y-114937500D01*
X68540000Y-115547500D02*
X67660000Y-115547500D01*
X68100000Y-114937500D01*
X68540000Y-115547500D01*
G36*
X68540000Y-115547500D02*
G01*
X67660000Y-115547500D01*
X68100000Y-114937500D01*
X68540000Y-115547500D01*
G37*
%TO.C,J5*%
X23670000Y-57810000D02*
X23670000Y-52670000D01*
X26330000Y-52670000D02*
X23670000Y-52670000D01*
X26330000Y-57810000D02*
X23670000Y-57810000D01*
X26330000Y-57810000D02*
X26330000Y-52670000D01*
X26330000Y-59080000D02*
X26330000Y-60410000D01*
X26330000Y-60410000D02*
X25000000Y-60410000D01*
%TO.C,R2*%
X67305000Y-69080000D02*
X67635000Y-69080000D01*
X67305000Y-75620000D02*
X67305000Y-69080000D01*
X67635000Y-75620000D02*
X67305000Y-75620000D01*
X69715000Y-75620000D02*
X70045000Y-75620000D01*
X70045000Y-69080000D02*
X69715000Y-69080000D01*
X70045000Y-75620000D02*
X70045000Y-69080000D01*
%TO.C,Rs2*%
X93130000Y-75730000D02*
X93130000Y-82270000D01*
X93130000Y-82270000D02*
X93460000Y-82270000D01*
X93460000Y-75730000D02*
X93130000Y-75730000D01*
X95540000Y-75730000D02*
X95870000Y-75730000D01*
X95870000Y-75730000D02*
X95870000Y-82270000D01*
X95870000Y-82270000D02*
X95540000Y-82270000D01*
%TO.C,L1*%
X111420000Y-110600000D02*
G75*
G02*
X101180000Y-110600000I-5120000J0D01*
G01*
X101180000Y-110600000D02*
G75*
G02*
X111420000Y-110600000I5120000J0D01*
G01*
%TO.C,D6*%
X77980000Y-88300000D02*
X79000000Y-88300000D01*
X79780000Y-86830000D02*
X79780000Y-89770000D01*
X79900000Y-86830000D02*
X79900000Y-89770000D01*
X80020000Y-86830000D02*
X80020000Y-89770000D01*
X85460000Y-88300000D02*
X84440000Y-88300000D01*
X79000000Y-86830000D02*
X84440000Y-86830000D01*
X84440000Y-89770000D01*
X79000000Y-89770000D01*
X79000000Y-86830000D01*
%TO.C,J2*%
X96620000Y-65380000D02*
X111620000Y-65380000D01*
X96620000Y-80380000D02*
X96620000Y-65380000D01*
X111420000Y-72880000D02*
X110420000Y-71880000D01*
X111420000Y-72880000D02*
X110420000Y-73880000D01*
X111620000Y-65380000D02*
X111620000Y-80380000D01*
X111620000Y-80380000D02*
X96620000Y-80380000D01*
%TO.C,R6*%
X88627064Y-105765000D02*
X88172936Y-105765000D01*
X88627064Y-107235000D02*
X88172936Y-107235000D01*
%TO.C,R7*%
X94290000Y-102977064D02*
X94290000Y-98622936D01*
X97710000Y-102977064D02*
X97710000Y-98622936D01*
%TO.C,R5*%
X82465000Y-110572936D02*
X82465000Y-111027064D01*
X83935000Y-110572936D02*
X83935000Y-111027064D01*
%TO.C,TPCH2*%
X96950000Y-81150000D02*
X99850000Y-81150000D01*
X96950000Y-84050000D02*
X96950000Y-81150000D01*
X99850000Y-81150000D02*
X99850000Y-84050000D01*
X99850000Y-84050000D02*
X96950000Y-84050000D01*
%TO.C,Q2*%
X92190000Y-105240000D02*
X94010000Y-105240000D01*
X92190000Y-105290000D02*
X92190000Y-105240000D01*
X92190000Y-107190000D02*
X92190000Y-106410000D01*
X92190000Y-108360000D02*
X92190000Y-108310000D01*
X94010000Y-105240000D02*
X94010000Y-106240000D01*
X94010000Y-107360000D02*
X94010000Y-108360000D01*
X94010000Y-108360000D02*
X92190000Y-108360000D01*
X91890000Y-106750000D02*
X91410000Y-106750000D01*
X91650000Y-106420000D01*
X91890000Y-106750000D01*
G36*
X91890000Y-106750000D02*
G01*
X91410000Y-106750000D01*
X91650000Y-106420000D01*
X91890000Y-106750000D01*
G37*
%TO.C,R4*%
X89930000Y-64030000D02*
X90260000Y-64030000D01*
X89930000Y-70570000D02*
X89930000Y-64030000D01*
X90260000Y-70570000D02*
X89930000Y-70570000D01*
X92340000Y-70570000D02*
X92670000Y-70570000D01*
X92670000Y-64030000D02*
X92340000Y-64030000D01*
X92670000Y-70570000D02*
X92670000Y-64030000D01*
%TO.C,TPOP1*%
X77150000Y-65050000D02*
X80050000Y-65050000D01*
X77150000Y-67950000D02*
X77150000Y-65050000D01*
X80050000Y-65050000D02*
X80050000Y-67950000D01*
X80050000Y-67950000D02*
X77150000Y-67950000D01*
%TO.C,R8*%
X98265000Y-107927064D02*
X98265000Y-107472936D01*
X99735000Y-107927064D02*
X99735000Y-107472936D01*
%TO.C,D7*%
X87880000Y-112400000D02*
X88900000Y-112400000D01*
X93320000Y-113870000D02*
X93320000Y-110930000D01*
X93440000Y-113870000D02*
X93440000Y-110930000D01*
X93560000Y-113870000D02*
X93560000Y-110930000D01*
X95360000Y-112400000D02*
X94340000Y-112400000D01*
X94340000Y-113870000D02*
X88900000Y-113870000D01*
X88900000Y-110930000D01*
X94340000Y-110930000D01*
X94340000Y-113870000D01*
%TO.C,Rg1*%
X76730000Y-49915000D02*
X76730000Y-56455000D01*
X76730000Y-56455000D02*
X77060000Y-56455000D01*
X77060000Y-49915000D02*
X76730000Y-49915000D01*
X79140000Y-49915000D02*
X79470000Y-49915000D01*
X79470000Y-49915000D02*
X79470000Y-56455000D01*
X79470000Y-56455000D02*
X79140000Y-56455000D01*
%TO.C,A1*%
X25500000Y-113150000D02*
X25500000Y-63150000D01*
X25840000Y-62603000D02*
X25840000Y-113697000D01*
X26110000Y-113760000D02*
X28600000Y-113760000D01*
X28600000Y-63453520D02*
X28600000Y-62540000D01*
X28600000Y-110453520D02*
X28600000Y-65846480D01*
X28600000Y-113760000D02*
X28600000Y-112846480D01*
X29947939Y-62540000D02*
X26110000Y-62540000D01*
X29947939Y-113760000D02*
X28600000Y-113760000D01*
X30872061Y-62540000D02*
X32510000Y-62540000D01*
X31875000Y-113760000D02*
X30872061Y-113760000D01*
X32000000Y-114240000D02*
X32210000Y-114240000D01*
X32000000Y-115060000D02*
X32000000Y-114240000D01*
X32210000Y-109240000D02*
X40010000Y-109240000D01*
X32210000Y-110456000D02*
X32210000Y-109240000D01*
X32210000Y-114240000D02*
X32210000Y-112844000D01*
X32510000Y-62540000D02*
X39710000Y-62540000D01*
X39710000Y-62540000D02*
X41347939Y-62540000D01*
X40010000Y-110456000D02*
X40010000Y-109240000D01*
X40010000Y-114240000D02*
X40010000Y-112844000D01*
X40220000Y-114240000D02*
X40010000Y-114240000D01*
X40220000Y-115060000D02*
X32000000Y-115060000D01*
X40220000Y-115060000D02*
X40220000Y-114240000D01*
X40345000Y-113760000D02*
X31875000Y-113760000D01*
X41347939Y-113760000D02*
X40345000Y-113760000D01*
X43620000Y-63453520D02*
X43620000Y-62540000D01*
X43620000Y-110453520D02*
X43620000Y-65846480D01*
X43620000Y-113760000D02*
X42272060Y-113760000D01*
X43620000Y-113760000D02*
X43620000Y-112846480D01*
X46110000Y-62540000D02*
X42272061Y-62540000D01*
X46110000Y-113760000D02*
X43620000Y-113760000D01*
X46380000Y-113697000D02*
X46380000Y-62603000D01*
X46720000Y-113150000D02*
X46720000Y-63150000D01*
X47040000Y-111480000D02*
X47040000Y-113080000D01*
X25500000Y-63150000D02*
G75*
G02*
X26110000Y-62540000I610000J0D01*
G01*
X26110000Y-113760000D02*
G75*
G02*
X25500000Y-113150000I0J610000D01*
G01*
X46110000Y-62540000D02*
G75*
G02*
X46720000Y-63150000I99J-609901D01*
G01*
X46720000Y-113150000D02*
G75*
G02*
X46110000Y-113760000I-610000J0D01*
G01*
%TO.C,C7*%
X98720000Y-101362651D02*
X106880000Y-101362651D01*
X98720000Y-101402651D02*
X106880000Y-101402651D01*
X98721000Y-101322651D02*
X106879000Y-101322651D01*
X98722000Y-101282651D02*
X106878000Y-101282651D01*
X98723000Y-101242651D02*
X106877000Y-101242651D01*
X98725000Y-101202651D02*
X106875000Y-101202651D01*
X98727000Y-101162651D02*
X106873000Y-101162651D01*
X98730000Y-101122651D02*
X106870000Y-101122651D01*
X98732000Y-101082651D02*
X106868000Y-101082651D01*
X98736000Y-101042651D02*
X106864000Y-101042651D01*
X98739000Y-101002651D02*
X106861000Y-101002651D01*
X98744000Y-100962651D02*
X106856000Y-100962651D01*
X98748000Y-100922651D02*
X106852000Y-100922651D01*
X98753000Y-100882651D02*
X106847000Y-100882651D01*
X98758000Y-100842651D02*
X106842000Y-100842651D01*
X98764000Y-100802651D02*
X106836000Y-100802651D01*
X98770000Y-100762651D02*
X106830000Y-100762651D01*
X98777000Y-100722651D02*
X106823000Y-100722651D01*
X98783000Y-100682651D02*
X106817000Y-100682651D01*
X98791000Y-100642651D02*
X106809000Y-100642651D01*
X98798000Y-100602651D02*
X106802000Y-100602651D01*
X98807000Y-100562651D02*
X106793000Y-100562651D01*
X98815000Y-100522651D02*
X101760000Y-100522651D01*
X98824000Y-100482651D02*
X101760000Y-100482651D01*
X98833000Y-100442651D02*
X101760000Y-100442651D01*
X98843000Y-100402651D02*
X101760000Y-100402651D01*
X98853000Y-100362651D02*
X101760000Y-100362651D01*
X98864000Y-100322651D02*
X101760000Y-100322651D01*
X98875000Y-100282651D02*
X101760000Y-100282651D01*
X98887000Y-100242651D02*
X101760000Y-100242651D01*
X98899000Y-100202651D02*
X101760000Y-100202651D01*
X98911000Y-100162651D02*
X101760000Y-100162651D01*
X98924000Y-100122651D02*
X101760000Y-100122651D01*
X98937000Y-100082651D02*
X101760000Y-100082651D01*
X98951000Y-100042651D02*
X101760000Y-100042651D01*
X98965000Y-100002651D02*
X101760000Y-100002651D01*
X98980000Y-99962651D02*
X101760000Y-99962651D01*
X98995000Y-99922651D02*
X101760000Y-99922651D01*
X99011000Y-99882651D02*
X101760000Y-99882651D01*
X99027000Y-99842651D02*
X101760000Y-99842651D01*
X99043000Y-99802651D02*
X101760000Y-99802651D01*
X99060000Y-99762651D02*
X101760000Y-99762651D01*
X99078000Y-99722651D02*
X101760000Y-99722651D01*
X99096000Y-99682651D02*
X101760000Y-99682651D01*
X99115000Y-99642651D02*
X101760000Y-99642651D01*
X99134000Y-99602651D02*
X101760000Y-99602651D01*
X99154000Y-99562651D02*
X101760000Y-99562651D01*
X99174000Y-99522651D02*
X101760000Y-99522651D01*
X99195000Y-99482651D02*
X101760000Y-99482651D01*
X99216000Y-99442651D02*
X101760000Y-99442651D01*
X99238000Y-99402651D02*
X101760000Y-99402651D01*
X99261000Y-99362651D02*
X101760000Y-99362651D01*
X99284000Y-99322651D02*
X101760000Y-99322651D01*
X99307000Y-99282651D02*
X101760000Y-99282651D01*
X99332000Y-99242651D02*
X101760000Y-99242651D01*
X99357000Y-99202651D02*
X101760000Y-99202651D01*
X99382000Y-99162651D02*
X101760000Y-99162651D01*
X99408000Y-99122651D02*
X101760000Y-99122651D01*
X99435000Y-99082651D02*
X101760000Y-99082651D01*
X99463000Y-99042651D02*
X101760000Y-99042651D01*
X99491000Y-99002651D02*
X101760000Y-99002651D01*
X99520000Y-98962651D02*
X101760000Y-98962651D01*
X99550000Y-98922651D02*
X101760000Y-98922651D01*
X99581000Y-98882651D02*
X101760000Y-98882651D01*
X99612000Y-98842651D02*
X101760000Y-98842651D01*
X99644000Y-98802651D02*
X101760000Y-98802651D01*
X99677000Y-98762651D02*
X101760000Y-98762651D01*
X99711000Y-98722651D02*
X101760000Y-98722651D01*
X99745000Y-98682651D02*
X101760000Y-98682651D01*
X99781000Y-98642651D02*
X101760000Y-98642651D01*
X99818000Y-98602651D02*
X101760000Y-98602651D01*
X99855000Y-98562651D02*
X101760000Y-98562651D01*
X99894000Y-98522651D02*
X101760000Y-98522651D01*
X99933000Y-98482651D02*
X101760000Y-98482651D01*
X99974000Y-98442651D02*
X105626000Y-98442651D01*
X100016000Y-98402651D02*
X105584000Y-98402651D01*
X100059000Y-98362651D02*
X105541000Y-98362651D01*
X100085000Y-105412349D02*
X100885000Y-105412349D01*
X100104000Y-98322651D02*
X105496000Y-98322651D01*
X100149000Y-98282651D02*
X105451000Y-98282651D01*
X100196000Y-98242651D02*
X105404000Y-98242651D01*
X100245000Y-98202651D02*
X105355000Y-98202651D01*
X100295000Y-98162651D02*
X105305000Y-98162651D01*
X100347000Y-98122651D02*
X105253000Y-98122651D01*
X100400000Y-98082651D02*
X105200000Y-98082651D01*
X100456000Y-98042651D02*
X105144000Y-98042651D01*
X100485000Y-105812349D02*
X100485000Y-105012349D01*
X100513000Y-98002651D02*
X105087000Y-98002651D01*
X100573000Y-97962651D02*
X105027000Y-97962651D01*
X100635000Y-97922651D02*
X104965000Y-97922651D01*
X100699000Y-97882651D02*
X104901000Y-97882651D01*
X100766000Y-97842651D02*
X104834000Y-97842651D01*
X100836000Y-97802651D02*
X104764000Y-97802651D01*
X100910000Y-97762651D02*
X104690000Y-97762651D01*
X100987000Y-97722651D02*
X104613000Y-97722651D01*
X101069000Y-97682651D02*
X104531000Y-97682651D01*
X101156000Y-97642651D02*
X104444000Y-97642651D01*
X101248000Y-97602651D02*
X104352000Y-97602651D01*
X101347000Y-97562651D02*
X104253000Y-97562651D01*
X101454000Y-97522651D02*
X104146000Y-97522651D01*
X101572000Y-97482651D02*
X104028000Y-97482651D01*
X101703000Y-97442651D02*
X103897000Y-97442651D01*
X101853000Y-97402651D02*
X103747000Y-97402651D01*
X102032000Y-97362651D02*
X103568000Y-97362651D01*
X102267000Y-97322651D02*
X103333000Y-97322651D01*
X103840000Y-98482651D02*
X105667000Y-98482651D01*
X103840000Y-98522651D02*
X105706000Y-98522651D01*
X103840000Y-98562651D02*
X105745000Y-98562651D01*
X103840000Y-98602651D02*
X105782000Y-98602651D01*
X103840000Y-98642651D02*
X105819000Y-98642651D01*
X103840000Y-98682651D02*
X105855000Y-98682651D01*
X103840000Y-98722651D02*
X105889000Y-98722651D01*
X103840000Y-98762651D02*
X105923000Y-98762651D01*
X103840000Y-98802651D02*
X105956000Y-98802651D01*
X103840000Y-98842651D02*
X105988000Y-98842651D01*
X103840000Y-98882651D02*
X106019000Y-98882651D01*
X103840000Y-98922651D02*
X106050000Y-98922651D01*
X103840000Y-98962651D02*
X106080000Y-98962651D01*
X103840000Y-99002651D02*
X106109000Y-99002651D01*
X103840000Y-99042651D02*
X106137000Y-99042651D01*
X103840000Y-99082651D02*
X106165000Y-99082651D01*
X103840000Y-99122651D02*
X106192000Y-99122651D01*
X103840000Y-99162651D02*
X106218000Y-99162651D01*
X103840000Y-99202651D02*
X106243000Y-99202651D01*
X103840000Y-99242651D02*
X106268000Y-99242651D01*
X103840000Y-99282651D02*
X106293000Y-99282651D01*
X103840000Y-99322651D02*
X106316000Y-99322651D01*
X103840000Y-99362651D02*
X106339000Y-99362651D01*
X103840000Y-99402651D02*
X106362000Y-99402651D01*
X103840000Y-99442651D02*
X106384000Y-99442651D01*
X103840000Y-99482651D02*
X106405000Y-99482651D01*
X103840000Y-99522651D02*
X106426000Y-99522651D01*
X103840000Y-99562651D02*
X106446000Y-99562651D01*
X103840000Y-99602651D02*
X106466000Y-99602651D01*
X103840000Y-99642651D02*
X106485000Y-99642651D01*
X103840000Y-99682651D02*
X106504000Y-99682651D01*
X103840000Y-99722651D02*
X106522000Y-99722651D01*
X103840000Y-99762651D02*
X106540000Y-99762651D01*
X103840000Y-99802651D02*
X106557000Y-99802651D01*
X103840000Y-99842651D02*
X106573000Y-99842651D01*
X103840000Y-99882651D02*
X106589000Y-99882651D01*
X103840000Y-99922651D02*
X106605000Y-99922651D01*
X103840000Y-99962651D02*
X106620000Y-99962651D01*
X103840000Y-100002651D02*
X106635000Y-100002651D01*
X103840000Y-100042651D02*
X106649000Y-100042651D01*
X103840000Y-100082651D02*
X106663000Y-100082651D01*
X103840000Y-100122651D02*
X106676000Y-100122651D01*
X103840000Y-100162651D02*
X106689000Y-100162651D01*
X103840000Y-100202651D02*
X106701000Y-100202651D01*
X103840000Y-100242651D02*
X106713000Y-100242651D01*
X103840000Y-100282651D02*
X106725000Y-100282651D01*
X103840000Y-100322651D02*
X106736000Y-100322651D01*
X103840000Y-100362651D02*
X106747000Y-100362651D01*
X103840000Y-100402651D02*
X106757000Y-100402651D01*
X103840000Y-100442651D02*
X106767000Y-100442651D01*
X103840000Y-100482651D02*
X106776000Y-100482651D01*
X103840000Y-100522651D02*
X106785000Y-100522651D01*
X106920000Y-101402651D02*
G75*
G02*
X98680000Y-101402651I-4120000J0D01*
G01*
X98680000Y-101402651D02*
G75*
G02*
X106920000Y-101402651I4120000J0D01*
G01*
%TO.C,C2*%
X21380000Y-106280000D02*
X21380000Y-113720000D01*
X24120000Y-106280000D02*
X21380000Y-106280000D01*
X24120000Y-106280000D02*
X24120000Y-113720000D01*
X24120000Y-113720000D02*
X21380000Y-113720000D01*
%TO.C,Rg2*%
X89980000Y-81130000D02*
X90310000Y-81130000D01*
X89980000Y-87670000D02*
X89980000Y-81130000D01*
X90310000Y-87670000D02*
X89980000Y-87670000D01*
X92390000Y-87670000D02*
X92720000Y-87670000D01*
X92720000Y-81130000D02*
X92390000Y-81130000D01*
X92720000Y-87670000D02*
X92720000Y-81130000D01*
%TO.C,C8*%
X86230000Y-63180000D02*
X88970000Y-63180000D01*
X86230000Y-70620000D02*
X86230000Y-63180000D01*
X86230000Y-70620000D02*
X88970000Y-70620000D01*
X88970000Y-70620000D02*
X88970000Y-63180000D01*
%TO.C,Rs1*%
X85880000Y-49940000D02*
X86210000Y-49940000D01*
X85880000Y-56480000D02*
X85880000Y-49940000D01*
X86210000Y-56480000D02*
X85880000Y-56480000D01*
X88290000Y-56480000D02*
X88620000Y-56480000D01*
X88620000Y-49940000D02*
X88290000Y-49940000D01*
X88620000Y-56480000D02*
X88620000Y-49940000D01*
%TO.C,C4*%
X56460000Y-83971000D02*
X53483000Y-83971000D01*
X56460000Y-84011000D02*
X53490000Y-84011000D01*
X56460000Y-84051000D02*
X53498000Y-84051000D01*
X56460000Y-84091000D02*
X53506000Y-84091000D01*
X56460000Y-84131000D02*
X53515000Y-84131000D01*
X56460000Y-84171000D02*
X53524000Y-84171000D01*
X56460000Y-84211000D02*
X53533000Y-84211000D01*
X56460000Y-84251000D02*
X53543000Y-84251000D01*
X56460000Y-84291000D02*
X53553000Y-84291000D01*
X56460000Y-84331000D02*
X53564000Y-84331000D01*
X56460000Y-84371000D02*
X53575000Y-84371000D01*
X56460000Y-84411000D02*
X53586000Y-84411000D01*
X56460000Y-84451000D02*
X53598000Y-84451000D01*
X56460000Y-84491000D02*
X53611000Y-84491000D01*
X56460000Y-84531000D02*
X53623000Y-84531000D01*
X56460000Y-84571000D02*
X53637000Y-84571000D01*
X56460000Y-84611000D02*
X53650000Y-84611000D01*
X56460000Y-84651000D02*
X53665000Y-84651000D01*
X56460000Y-84691000D02*
X53679000Y-84691000D01*
X56460000Y-84731000D02*
X53695000Y-84731000D01*
X56460000Y-84771000D02*
X53710000Y-84771000D01*
X56460000Y-84811000D02*
X53726000Y-84811000D01*
X56460000Y-84851000D02*
X53743000Y-84851000D01*
X56460000Y-84891000D02*
X53760000Y-84891000D01*
X56460000Y-84931000D02*
X53778000Y-84931000D01*
X56460000Y-84971000D02*
X53796000Y-84971000D01*
X56460000Y-85011000D02*
X53814000Y-85011000D01*
X56460000Y-85051000D02*
X53834000Y-85051000D01*
X56460000Y-85091000D02*
X53853000Y-85091000D01*
X56460000Y-85131000D02*
X53873000Y-85131000D01*
X56460000Y-85171000D02*
X53894000Y-85171000D01*
X56460000Y-85211000D02*
X53916000Y-85211000D01*
X56460000Y-85251000D02*
X53938000Y-85251000D01*
X56460000Y-85291000D02*
X53960000Y-85291000D01*
X56460000Y-85331000D02*
X53983000Y-85331000D01*
X56460000Y-85371000D02*
X54007000Y-85371000D01*
X56460000Y-85411000D02*
X54031000Y-85411000D01*
X56460000Y-85451000D02*
X54056000Y-85451000D01*
X56460000Y-85491000D02*
X54082000Y-85491000D01*
X56460000Y-85531000D02*
X54108000Y-85531000D01*
X56460000Y-85571000D02*
X54135000Y-85571000D01*
X56460000Y-85611000D02*
X54162000Y-85611000D01*
X56460000Y-85651000D02*
X54191000Y-85651000D01*
X56460000Y-85691000D02*
X54220000Y-85691000D01*
X56460000Y-85731000D02*
X54250000Y-85731000D01*
X56460000Y-85771000D02*
X54280000Y-85771000D01*
X56460000Y-85811000D02*
X54311000Y-85811000D01*
X56460000Y-85851000D02*
X54344000Y-85851000D01*
X56460000Y-85891000D02*
X54376000Y-85891000D01*
X56460000Y-85931000D02*
X54410000Y-85931000D01*
X56460000Y-85971000D02*
X54445000Y-85971000D01*
X56460000Y-86011000D02*
X54481000Y-86011000D01*
X58033000Y-87331000D02*
X56967000Y-87331000D01*
X58268000Y-87291000D02*
X56732000Y-87291000D01*
X58448000Y-87251000D02*
X56552000Y-87251000D01*
X58598000Y-87211000D02*
X56402000Y-87211000D01*
X58729000Y-87171000D02*
X56271000Y-87171000D01*
X58846000Y-87131000D02*
X56154000Y-87131000D01*
X58953000Y-87091000D02*
X56047000Y-87091000D01*
X59052000Y-87051000D02*
X55948000Y-87051000D01*
X59145000Y-87011000D02*
X55855000Y-87011000D01*
X59231000Y-86971000D02*
X55769000Y-86971000D01*
X59313000Y-86931000D02*
X55687000Y-86931000D01*
X59390000Y-86891000D02*
X55610000Y-86891000D01*
X59464000Y-86851000D02*
X55536000Y-86851000D01*
X59534000Y-86811000D02*
X55466000Y-86811000D01*
X59602000Y-86771000D02*
X55398000Y-86771000D01*
X59666000Y-86731000D02*
X55334000Y-86731000D01*
X59728000Y-86691000D02*
X55272000Y-86691000D01*
X59787000Y-86651000D02*
X55213000Y-86651000D01*
X59815000Y-78840302D02*
X59815000Y-79640302D01*
X59845000Y-86611000D02*
X55155000Y-86611000D01*
X59900000Y-86571000D02*
X55100000Y-86571000D01*
X59954000Y-86531000D02*
X55046000Y-86531000D01*
X60005000Y-86491000D02*
X54995000Y-86491000D01*
X60056000Y-86451000D02*
X54944000Y-86451000D01*
X60104000Y-86411000D02*
X54896000Y-86411000D01*
X60151000Y-86371000D02*
X54849000Y-86371000D01*
X60197000Y-86331000D02*
X54803000Y-86331000D01*
X60215000Y-79240302D02*
X59415000Y-79240302D01*
X60241000Y-86291000D02*
X54759000Y-86291000D01*
X60284000Y-86251000D02*
X54716000Y-86251000D01*
X60326000Y-86211000D02*
X54674000Y-86211000D01*
X60367000Y-86171000D02*
X54633000Y-86171000D01*
X60407000Y-86131000D02*
X54593000Y-86131000D01*
X60445000Y-86091000D02*
X54555000Y-86091000D01*
X60483000Y-86051000D02*
X54517000Y-86051000D01*
X60519000Y-86011000D02*
X58540000Y-86011000D01*
X60555000Y-85971000D02*
X58540000Y-85971000D01*
X60590000Y-85931000D02*
X58540000Y-85931000D01*
X60624000Y-85891000D02*
X58540000Y-85891000D01*
X60656000Y-85851000D02*
X58540000Y-85851000D01*
X60689000Y-85811000D02*
X58540000Y-85811000D01*
X60720000Y-85771000D02*
X58540000Y-85771000D01*
X60750000Y-85731000D02*
X58540000Y-85731000D01*
X60780000Y-85691000D02*
X58540000Y-85691000D01*
X60809000Y-85651000D02*
X58540000Y-85651000D01*
X60838000Y-85611000D02*
X58540000Y-85611000D01*
X60865000Y-85571000D02*
X58540000Y-85571000D01*
X60892000Y-85531000D02*
X58540000Y-85531000D01*
X60918000Y-85491000D02*
X58540000Y-85491000D01*
X60944000Y-85451000D02*
X58540000Y-85451000D01*
X60969000Y-85411000D02*
X58540000Y-85411000D01*
X60993000Y-85371000D02*
X58540000Y-85371000D01*
X61017000Y-85331000D02*
X58540000Y-85331000D01*
X61040000Y-85291000D02*
X58540000Y-85291000D01*
X61062000Y-85251000D02*
X58540000Y-85251000D01*
X61084000Y-85211000D02*
X58540000Y-85211000D01*
X61106000Y-85171000D02*
X58540000Y-85171000D01*
X61127000Y-85131000D02*
X58540000Y-85131000D01*
X61147000Y-85091000D02*
X58540000Y-85091000D01*
X61166000Y-85051000D02*
X58540000Y-85051000D01*
X61186000Y-85011000D02*
X58540000Y-85011000D01*
X61204000Y-84971000D02*
X58540000Y-84971000D01*
X61222000Y-84931000D02*
X58540000Y-84931000D01*
X61240000Y-84891000D02*
X58540000Y-84891000D01*
X61257000Y-84851000D02*
X58540000Y-84851000D01*
X61274000Y-84811000D02*
X58540000Y-84811000D01*
X61290000Y-84771000D02*
X58540000Y-84771000D01*
X61305000Y-84731000D02*
X58540000Y-84731000D01*
X61321000Y-84691000D02*
X58540000Y-84691000D01*
X61335000Y-84651000D02*
X58540000Y-84651000D01*
X61350000Y-84611000D02*
X58540000Y-84611000D01*
X61363000Y-84571000D02*
X58540000Y-84571000D01*
X61377000Y-84531000D02*
X58540000Y-84531000D01*
X61389000Y-84491000D02*
X58540000Y-84491000D01*
X61402000Y-84451000D02*
X58540000Y-84451000D01*
X61414000Y-84411000D02*
X58540000Y-84411000D01*
X61425000Y-84371000D02*
X58540000Y-84371000D01*
X61436000Y-84331000D02*
X58540000Y-84331000D01*
X61447000Y-84291000D02*
X58540000Y-84291000D01*
X61457000Y-84251000D02*
X58540000Y-84251000D01*
X61467000Y-84211000D02*
X58540000Y-84211000D01*
X61476000Y-84171000D02*
X58540000Y-84171000D01*
X61485000Y-84131000D02*
X58540000Y-84131000D01*
X61494000Y-84091000D02*
X58540000Y-84091000D01*
X61502000Y-84051000D02*
X58540000Y-84051000D01*
X61510000Y-84011000D02*
X58540000Y-84011000D01*
X61517000Y-83971000D02*
X58540000Y-83971000D01*
X61524000Y-83930000D02*
X53476000Y-83930000D01*
X61530000Y-83890000D02*
X53470000Y-83890000D01*
X61537000Y-83850000D02*
X53463000Y-83850000D01*
X61542000Y-83810000D02*
X53458000Y-83810000D01*
X61548000Y-83770000D02*
X53452000Y-83770000D01*
X61552000Y-83730000D02*
X53448000Y-83730000D01*
X61557000Y-83690000D02*
X53443000Y-83690000D01*
X61561000Y-83650000D02*
X53439000Y-83650000D01*
X61565000Y-83610000D02*
X53435000Y-83610000D01*
X61568000Y-83570000D02*
X53432000Y-83570000D01*
X61571000Y-83530000D02*
X53429000Y-83530000D01*
X61574000Y-83490000D02*
X53426000Y-83490000D01*
X61576000Y-83450000D02*
X53424000Y-83450000D01*
X61577000Y-83410000D02*
X53423000Y-83410000D01*
X61579000Y-83370000D02*
X53421000Y-83370000D01*
X61580000Y-83250000D02*
X53420000Y-83250000D01*
X61580000Y-83290000D02*
X53420000Y-83290000D01*
X61580000Y-83330000D02*
X53420000Y-83330000D01*
X61620000Y-83250000D02*
G75*
G02*
X53380000Y-83250000I-4120000J0D01*
G01*
X53380000Y-83250000D02*
G75*
G02*
X61620000Y-83250000I4120000J0D01*
G01*
%TO.C,Rf1*%
X70430000Y-61555000D02*
X76970000Y-61555000D01*
X70430000Y-61885000D02*
X70430000Y-61555000D01*
X70430000Y-63965000D02*
X70430000Y-64295000D01*
X70430000Y-64295000D02*
X76970000Y-64295000D01*
X76970000Y-61555000D02*
X76970000Y-61885000D01*
X76970000Y-64295000D02*
X76970000Y-63965000D01*
%TO.C,D2*%
X95680000Y-85180000D02*
X103520000Y-85180000D01*
X95680000Y-85660000D02*
X95680000Y-85180000D01*
X95680000Y-88540000D02*
X95680000Y-89020000D01*
X95680000Y-89020000D02*
X103520000Y-89020000D01*
X96820000Y-85180000D02*
X96820000Y-89020000D01*
X96940000Y-85180000D02*
X96940000Y-89020000D01*
X97060000Y-85180000D02*
X97060000Y-89020000D01*
X103520000Y-85180000D02*
X103520000Y-85660000D01*
X103520000Y-89020000D02*
X103520000Y-88540000D01*
%TO.C,D5*%
X77880000Y-84700000D02*
X78900000Y-84700000D01*
X79680000Y-83230000D02*
X79680000Y-86170000D01*
X79800000Y-83230000D02*
X79800000Y-86170000D01*
X79920000Y-83230000D02*
X79920000Y-86170000D01*
X85360000Y-84700000D02*
X84340000Y-84700000D01*
X78900000Y-83230000D02*
X84340000Y-83230000D01*
X84340000Y-86170000D01*
X78900000Y-86170000D01*
X78900000Y-83230000D01*
%TO.C,U2*%
X84540000Y-72870000D02*
X84635000Y-72870000D01*
X84540000Y-76990000D02*
X84540000Y-72870000D01*
X84635000Y-76990000D02*
X84540000Y-76990000D01*
X89565000Y-72870000D02*
X89660000Y-72870000D01*
X89660000Y-72870000D02*
X89660000Y-76990000D01*
X89660000Y-76990000D02*
X89565000Y-76990000D01*
X84630000Y-77530000D02*
X84300000Y-77770000D01*
X84300000Y-77290000D01*
X84630000Y-77530000D01*
G36*
X84630000Y-77530000D02*
G01*
X84300000Y-77770000D01*
X84300000Y-77290000D01*
X84630000Y-77530000D01*
G37*
%TO.C,C9*%
X60780000Y-66870000D02*
X60780000Y-64130000D01*
X68220000Y-64130000D02*
X60780000Y-64130000D01*
X68220000Y-66870000D02*
X60780000Y-66870000D01*
X68220000Y-66870000D02*
X68220000Y-64130000D01*
%TO.C,D4*%
X74000000Y-50840000D02*
X74000000Y-51860000D01*
X74000000Y-58320000D02*
X74000000Y-57300000D01*
X75470000Y-52640000D02*
X72530000Y-52640000D01*
X75470000Y-52760000D02*
X72530000Y-52760000D01*
X75470000Y-52880000D02*
X72530000Y-52880000D01*
X75470000Y-51860000D02*
X72530000Y-51860000D01*
X72530000Y-57300000D01*
X75470000Y-57300000D01*
X75470000Y-51860000D01*
%TO.C,C1*%
X74630000Y-73780000D02*
X77370000Y-73780000D01*
X74630000Y-81220000D02*
X74630000Y-73780000D01*
X77370000Y-73780000D02*
X77370000Y-81220000D01*
X77370000Y-81220000D02*
X74630000Y-81220000D01*
%TO.C,R1*%
X66230000Y-77630000D02*
X72770000Y-77630000D01*
X66230000Y-77960000D02*
X66230000Y-77630000D01*
X66230000Y-80040000D02*
X66230000Y-80370000D01*
X66230000Y-80370000D02*
X72770000Y-80370000D01*
X72770000Y-77630000D02*
X72770000Y-77960000D01*
X72770000Y-80370000D02*
X72770000Y-80040000D01*
%TO.C,U1*%
X71110000Y-67465000D02*
X71205000Y-67465000D01*
X71110000Y-71585000D02*
X71110000Y-67465000D01*
X71205000Y-71585000D02*
X71110000Y-71585000D01*
X76135000Y-67465000D02*
X76230000Y-67465000D01*
X76230000Y-67465000D02*
X76230000Y-71585000D01*
X76230000Y-71585000D02*
X76135000Y-71585000D01*
X76470000Y-67165000D02*
X76140000Y-66925000D01*
X76470000Y-66685000D01*
X76470000Y-67165000D01*
G36*
X76470000Y-67165000D02*
G01*
X76140000Y-66925000D01*
X76470000Y-66685000D01*
X76470000Y-67165000D01*
G37*
%TO.C,C3*%
X82680000Y-63280000D02*
X85420000Y-63280000D01*
X82680000Y-70720000D02*
X82680000Y-63280000D01*
X85420000Y-63280000D02*
X85420000Y-70720000D01*
X85420000Y-70720000D02*
X82680000Y-70720000D01*
%TO.C,TPOP2*%
X80100000Y-75550000D02*
X83000000Y-75550000D01*
X80100000Y-78450000D02*
X80100000Y-75550000D01*
X83000000Y-75550000D02*
X83000000Y-78450000D01*
X83000000Y-78450000D02*
X80100000Y-78450000D01*
%TO.C,J1*%
X96620000Y-48080000D02*
X111620000Y-48080000D01*
X96620000Y-63080000D02*
X96620000Y-48080000D01*
X111420000Y-55580000D02*
X110420000Y-54580000D01*
X111420000Y-55580000D02*
X110420000Y-56580000D01*
X111620000Y-48080000D02*
X111620000Y-63080000D01*
X111620000Y-63080000D02*
X96620000Y-63080000D01*
%TO.C,TP3.3V*%
X107950000Y-101050000D02*
X110850000Y-101050000D01*
X107950000Y-103950000D02*
X107950000Y-101050000D01*
X110850000Y-101050000D02*
X110850000Y-103950000D01*
X110850000Y-103950000D02*
X107950000Y-103950000D01*
%TO.C,C6*%
X97338748Y-94865000D02*
X97861252Y-94865000D01*
X97338748Y-96335000D02*
X97861252Y-96335000D01*
%TO.C,Rf2*%
X81170000Y-79230000D02*
X81170000Y-79560000D01*
X81170000Y-81970000D02*
X81170000Y-81640000D01*
X87710000Y-79230000D02*
X81170000Y-79230000D01*
X87710000Y-79560000D02*
X87710000Y-79230000D01*
X87710000Y-81640000D02*
X87710000Y-81970000D01*
X87710000Y-81970000D02*
X81170000Y-81970000D01*
%TO.C,C5*%
X84387651Y-97885000D02*
X85187651Y-97885000D01*
X84787651Y-97485000D02*
X84787651Y-98285000D01*
X88797349Y-96120000D02*
X88797349Y-104280000D01*
X88837349Y-96120000D02*
X88837349Y-104280000D01*
X88877349Y-96121000D02*
X88877349Y-104279000D01*
X88917349Y-96122000D02*
X88917349Y-104278000D01*
X88957349Y-96123000D02*
X88957349Y-104277000D01*
X88997349Y-96125000D02*
X88997349Y-104275000D01*
X89037349Y-96127000D02*
X89037349Y-104273000D01*
X89077349Y-96130000D02*
X89077349Y-104270000D01*
X89117349Y-96132000D02*
X89117349Y-104268000D01*
X89157349Y-96136000D02*
X89157349Y-104264000D01*
X89197349Y-96139000D02*
X89197349Y-104261000D01*
X89237349Y-96144000D02*
X89237349Y-104256000D01*
X89277349Y-96148000D02*
X89277349Y-104252000D01*
X89317349Y-96153000D02*
X89317349Y-104247000D01*
X89357349Y-96158000D02*
X89357349Y-104242000D01*
X89397349Y-96164000D02*
X89397349Y-104236000D01*
X89437349Y-96170000D02*
X89437349Y-104230000D01*
X89477349Y-96177000D02*
X89477349Y-104223000D01*
X89517349Y-96183000D02*
X89517349Y-104217000D01*
X89557349Y-96191000D02*
X89557349Y-104209000D01*
X89597349Y-96198000D02*
X89597349Y-104202000D01*
X89637349Y-96207000D02*
X89637349Y-104193000D01*
X89677349Y-96215000D02*
X89677349Y-99160000D01*
X89677349Y-101240000D02*
X89677349Y-104185000D01*
X89717349Y-96224000D02*
X89717349Y-99160000D01*
X89717349Y-101240000D02*
X89717349Y-104176000D01*
X89757349Y-96233000D02*
X89757349Y-99160000D01*
X89757349Y-101240000D02*
X89757349Y-104167000D01*
X89797349Y-96243000D02*
X89797349Y-99160000D01*
X89797349Y-101240000D02*
X89797349Y-104157000D01*
X89837349Y-96253000D02*
X89837349Y-99160000D01*
X89837349Y-101240000D02*
X89837349Y-104147000D01*
X89877349Y-96264000D02*
X89877349Y-99160000D01*
X89877349Y-101240000D02*
X89877349Y-104136000D01*
X89917349Y-96275000D02*
X89917349Y-99160000D01*
X89917349Y-101240000D02*
X89917349Y-104125000D01*
X89957349Y-96287000D02*
X89957349Y-99160000D01*
X89957349Y-101240000D02*
X89957349Y-104113000D01*
X89997349Y-96299000D02*
X89997349Y-99160000D01*
X89997349Y-101240000D02*
X89997349Y-104101000D01*
X90037349Y-96311000D02*
X90037349Y-99160000D01*
X90037349Y-101240000D02*
X90037349Y-104089000D01*
X90077349Y-96324000D02*
X90077349Y-99160000D01*
X90077349Y-101240000D02*
X90077349Y-104076000D01*
X90117349Y-96337000D02*
X90117349Y-99160000D01*
X90117349Y-101240000D02*
X90117349Y-104063000D01*
X90157349Y-96351000D02*
X90157349Y-99160000D01*
X90157349Y-101240000D02*
X90157349Y-104049000D01*
X90197349Y-96365000D02*
X90197349Y-99160000D01*
X90197349Y-101240000D02*
X90197349Y-104035000D01*
X90237349Y-96380000D02*
X90237349Y-99160000D01*
X90237349Y-101240000D02*
X90237349Y-104020000D01*
X90277349Y-96395000D02*
X90277349Y-99160000D01*
X90277349Y-101240000D02*
X90277349Y-104005000D01*
X90317349Y-96411000D02*
X90317349Y-99160000D01*
X90317349Y-101240000D02*
X90317349Y-103989000D01*
X90357349Y-96427000D02*
X90357349Y-99160000D01*
X90357349Y-101240000D02*
X90357349Y-103973000D01*
X90397349Y-96443000D02*
X90397349Y-99160000D01*
X90397349Y-101240000D02*
X90397349Y-103957000D01*
X90437349Y-96460000D02*
X90437349Y-99160000D01*
X90437349Y-101240000D02*
X90437349Y-103940000D01*
X90477349Y-96478000D02*
X90477349Y-99160000D01*
X90477349Y-101240000D02*
X90477349Y-103922000D01*
X90517349Y-96496000D02*
X90517349Y-99160000D01*
X90517349Y-101240000D02*
X90517349Y-103904000D01*
X90557349Y-96515000D02*
X90557349Y-99160000D01*
X90557349Y-101240000D02*
X90557349Y-103885000D01*
X90597349Y-96534000D02*
X90597349Y-99160000D01*
X90597349Y-101240000D02*
X90597349Y-103866000D01*
X90637349Y-96554000D02*
X90637349Y-99160000D01*
X90637349Y-101240000D02*
X90637349Y-103846000D01*
X90677349Y-96574000D02*
X90677349Y-99160000D01*
X90677349Y-101240000D02*
X90677349Y-103826000D01*
X90717349Y-96595000D02*
X90717349Y-99160000D01*
X90717349Y-101240000D02*
X90717349Y-103805000D01*
X90757349Y-96616000D02*
X90757349Y-99160000D01*
X90757349Y-101240000D02*
X90757349Y-103784000D01*
X90797349Y-96638000D02*
X90797349Y-99160000D01*
X90797349Y-101240000D02*
X90797349Y-103762000D01*
X90837349Y-96661000D02*
X90837349Y-99160000D01*
X90837349Y-101240000D02*
X90837349Y-103739000D01*
X90877349Y-96684000D02*
X90877349Y-99160000D01*
X90877349Y-101240000D02*
X90877349Y-103716000D01*
X90917349Y-96707000D02*
X90917349Y-99160000D01*
X90917349Y-101240000D02*
X90917349Y-103693000D01*
X90957349Y-96732000D02*
X90957349Y-99160000D01*
X90957349Y-101240000D02*
X90957349Y-103668000D01*
X90997349Y-96757000D02*
X90997349Y-99160000D01*
X90997349Y-101240000D02*
X90997349Y-103643000D01*
X91037349Y-96782000D02*
X91037349Y-99160000D01*
X91037349Y-101240000D02*
X91037349Y-103618000D01*
X91077349Y-96808000D02*
X91077349Y-99160000D01*
X91077349Y-101240000D02*
X91077349Y-103592000D01*
X91117349Y-96835000D02*
X91117349Y-99160000D01*
X91117349Y-101240000D02*
X91117349Y-103565000D01*
X91157349Y-96863000D02*
X91157349Y-99160000D01*
X91157349Y-101240000D02*
X91157349Y-103537000D01*
X91197349Y-96891000D02*
X91197349Y-99160000D01*
X91197349Y-101240000D02*
X91197349Y-103509000D01*
X91237349Y-96920000D02*
X91237349Y-99160000D01*
X91237349Y-101240000D02*
X91237349Y-103480000D01*
X91277349Y-96950000D02*
X91277349Y-99160000D01*
X91277349Y-101240000D02*
X91277349Y-103450000D01*
X91317349Y-96981000D02*
X91317349Y-99160000D01*
X91317349Y-101240000D02*
X91317349Y-103419000D01*
X91357349Y-97012000D02*
X91357349Y-99160000D01*
X91357349Y-101240000D02*
X91357349Y-103388000D01*
X91397349Y-97044000D02*
X91397349Y-99160000D01*
X91397349Y-101240000D02*
X91397349Y-103356000D01*
X91437349Y-97077000D02*
X91437349Y-99160000D01*
X91437349Y-101240000D02*
X91437349Y-103323000D01*
X91477349Y-97111000D02*
X91477349Y-99160000D01*
X91477349Y-101240000D02*
X91477349Y-103289000D01*
X91517349Y-97145000D02*
X91517349Y-99160000D01*
X91517349Y-101240000D02*
X91517349Y-103255000D01*
X91557349Y-97181000D02*
X91557349Y-99160000D01*
X91557349Y-101240000D02*
X91557349Y-103219000D01*
X91597349Y-97218000D02*
X91597349Y-99160000D01*
X91597349Y-101240000D02*
X91597349Y-103182000D01*
X91637349Y-97255000D02*
X91637349Y-99160000D01*
X91637349Y-101240000D02*
X91637349Y-103145000D01*
X91677349Y-97294000D02*
X91677349Y-99160000D01*
X91677349Y-101240000D02*
X91677349Y-103106000D01*
X91717349Y-97333000D02*
X91717349Y-99160000D01*
X91717349Y-101240000D02*
X91717349Y-103067000D01*
X91757349Y-97374000D02*
X91757349Y-103026000D01*
X91797349Y-97416000D02*
X91797349Y-102984000D01*
X91837349Y-97459000D02*
X91837349Y-102941000D01*
X91877349Y-97504000D02*
X91877349Y-102896000D01*
X91917349Y-97549000D02*
X91917349Y-102851000D01*
X91957349Y-97596000D02*
X91957349Y-102804000D01*
X91997349Y-97645000D02*
X91997349Y-102755000D01*
X92037349Y-97695000D02*
X92037349Y-102705000D01*
X92077349Y-97747000D02*
X92077349Y-102653000D01*
X92117349Y-97800000D02*
X92117349Y-102600000D01*
X92157349Y-97856000D02*
X92157349Y-102544000D01*
X92197349Y-97913000D02*
X92197349Y-102487000D01*
X92237349Y-97973000D02*
X92237349Y-102427000D01*
X92277349Y-98035000D02*
X92277349Y-102365000D01*
X92317349Y-98099000D02*
X92317349Y-102301000D01*
X92357349Y-98166000D02*
X92357349Y-102234000D01*
X92397349Y-98236000D02*
X92397349Y-102164000D01*
X92437349Y-98310000D02*
X92437349Y-102090000D01*
X92477349Y-98387000D02*
X92477349Y-102013000D01*
X92517349Y-98469000D02*
X92517349Y-101931000D01*
X92557349Y-98556000D02*
X92557349Y-101844000D01*
X92597349Y-98648000D02*
X92597349Y-101752000D01*
X92637349Y-98747000D02*
X92637349Y-101653000D01*
X92677349Y-98854000D02*
X92677349Y-101546000D01*
X92717349Y-98972000D02*
X92717349Y-101428000D01*
X92757349Y-99103000D02*
X92757349Y-101297000D01*
X92797349Y-99253000D02*
X92797349Y-101147000D01*
X92837349Y-99432000D02*
X92837349Y-100968000D01*
X92877349Y-99667000D02*
X92877349Y-100733000D01*
X92917349Y-100200000D02*
G75*
G02*
X84677349Y-100200000I-4120000J0D01*
G01*
X84677349Y-100200000D02*
G75*
G02*
X92917349Y-100200000I4120000J0D01*
G01*
%TO.C,D3*%
X68530000Y-56200000D02*
X71470000Y-56200000D01*
X68530000Y-56320000D02*
X71470000Y-56320000D01*
X68530000Y-56440000D02*
X71470000Y-56440000D01*
X70000000Y-50760000D02*
X70000000Y-51780000D01*
X70000000Y-58240000D02*
X70000000Y-57220000D01*
X68530000Y-57220000D02*
X71470000Y-57220000D01*
X71470000Y-51780000D01*
X68530000Y-51780000D01*
X68530000Y-57220000D01*
%TD*%
M02*
