M48
; DRILL file {KiCad 9.0.6} date 2026-05-13T13:27:15+0200
; FORMAT={-:-/ absolute / metric / decimal}
; #@! TF.CreationDate,2026-05-13T13:27:15+02:00
; #@! TF.GenerationSoftware,Kicad,Pcbnew,9.0.6
; #@! TF.FileFunction,Plated,1,2,PTH
FMAT,2
METRIC
; #@! TA.AperFunction,Plated,PTH,ViaDrill
T1C0.300
; #@! TA.AperFunction,Plated,PTH,ComponentDrill
T2C0.800
; #@! TA.AperFunction,Plated,PTH,ComponentDrill
T3C0.890
; #@! TA.AperFunction,Plated,PTH,ComponentDrill
T4C1.000
; #@! TA.AperFunction,Plated,PTH,ComponentDrill
T5C1.100
; #@! TA.AperFunction,Plated,PTH,ComponentDrill
T6C1.200
; #@! TA.AperFunction,Plated,PTH,ComponentDrill
T7C1.300
; #@! TA.AperFunction,Plated,PTH,ComponentDrill
T8C1.400
; #@! TA.AperFunction,Plated,PTH,ComponentDrill
T9C2.010
%
G90
G05
T1
X21.0Y-26.5
X22.0Y-52.0
X22.0Y-92.0
X22.5Y-69.0
X22.777Y-45.745
X23.7Y-48.6
X25.0Y-43.0
X25.25Y-114.5
X25.5Y-61.0
X27.0Y-21.5
X29.0Y-59.0
X32.0Y-48.5
X32.5Y-56.5
X33.5Y-47.5
X33.5Y-55.0
X35.8Y-88.9
X36.0Y-75.0
X36.0Y-109.0
X37.4Y-54.7
X40.0Y-61.5
X41.0Y-61.0
X44.5Y-60.0
X47.5Y-69.0
X48.0Y-82.0
X51.0Y-74.5
X52.0Y-112.0
X52.5Y-80.5
X53.5Y-48.0
X53.5Y-82.5
X53.6Y-54.9
X54.0Y-62.0
X54.0Y-87.5
X54.25Y-74.5
X55.6Y-66.7
X57.0Y-95.0
X57.5Y-87.0
X58.0Y-70.5
X58.5Y-62.0
X58.5Y-66.5
X59.0Y-73.5
X59.0Y-79.0
X60.5Y-85.0
X60.5Y-87.0
X61.8Y-78.0
X62.0Y-68.0
X64.0Y-55.0
X64.5Y-85.0
X64.5Y-87.5
X67.0Y-50.0
X68.0Y-71.0
X69.0Y-95.0
X69.4Y-83.8
X70.0Y-66.0
X71.5Y-73.5
X71.5Y-99.0
X74.0Y-76.5
X77.0Y-95.0
X78.0Y-97.0
X78.5Y-70.6
X81.0Y-91.0
X81.5Y-64.0
X83.0Y-57.0
X90.4Y-78.1
X90.4Y-107.75
X90.5Y-74.1
X90.5Y-75.3
X92.0Y-53.0
X92.5Y-93.5
X97.5Y-93.0
X99.0Y-67.0
X99.0Y-80.0
X99.0Y-88.0
X101.0Y-54.0
X103.0Y-95.0
X103.5Y-84.0
X104.0Y-54.0
X104.0Y-56.0
X104.0Y-58.0
X110.0Y-66.0
X110.0Y-73.0
X110.0Y-90.0
T2
X22.75Y-107.5
X22.75Y-112.5
X23.0Y-22.5
X23.0Y-24.5
X23.0Y-26.5
X23.0Y-28.5
X23.0Y-30.5
X23.0Y-32.5
X23.0Y-34.5
X23.0Y-36.5
X23.0Y-38.5
X23.0Y-40.5
X25.0Y-22.5
X25.0Y-24.5
X25.0Y-26.5
X25.0Y-28.5
X25.0Y-30.5
X25.0Y-32.5
X25.0Y-34.5
X25.0Y-36.5
X25.0Y-38.5
X25.0Y-40.5
X57.5Y-81.5
X57.5Y-85.0
X62.0Y-65.5
X65.69Y-79.0
X67.0Y-65.5
X68.675Y-68.54
X68.675Y-76.16
X69.89Y-62.925
X73.31Y-79.0
X76.0Y-75.0
X76.0Y-80.0
X77.51Y-62.925
X78.1Y-49.375
X78.1Y-56.995
X80.63Y-80.6
X84.05Y-64.5
X84.05Y-69.5
X86.897Y-100.2
X87.25Y-49.4
X87.25Y-57.02
X87.6Y-64.4
X87.6Y-69.4
X88.25Y-80.6
X90.697Y-100.2
X91.3Y-63.49
X91.3Y-71.11
X91.35Y-80.59
X91.35Y-88.21
X94.5Y-75.19
X94.5Y-82.81
X94.7Y-63.19
X94.7Y-70.81
X102.8Y-99.503
X102.8Y-103.303
T3
X98.92Y-53.04
X98.92Y-55.58
X98.92Y-70.34
X98.92Y-72.88
T4
X25.0Y-54.0
X25.0Y-56.54
X25.0Y-59.08
X27.22Y-64.02
X27.22Y-66.56
X27.22Y-69.1
X27.22Y-71.64
X27.22Y-74.18
X27.22Y-76.72
X27.22Y-79.26
X27.22Y-81.8
X27.22Y-84.34
X27.22Y-86.88
X27.22Y-89.42
X27.22Y-91.96
X27.22Y-94.5
X27.22Y-97.04
X27.22Y-99.58
X27.22Y-102.12
X27.22Y-104.66
X27.22Y-107.2
X27.22Y-109.74
X27.22Y-112.28
X45.0Y-64.02
X45.0Y-66.56
X45.0Y-69.1
X45.0Y-71.64
X45.0Y-74.18
X45.0Y-76.72
X45.0Y-79.26
X45.0Y-81.8
X45.0Y-84.34
X45.0Y-86.88
X45.0Y-89.42
X45.0Y-91.96
X45.0Y-94.5
X45.0Y-97.04
X45.0Y-99.58
X45.0Y-102.12
X45.0Y-104.66
X45.0Y-107.2
X45.0Y-109.74
X45.0Y-112.28
T5
X70.0Y-49.42
X70.0Y-59.58
X74.0Y-49.5
X74.0Y-59.66
X76.54Y-84.7
X76.64Y-88.3
X86.54Y-112.4
X86.7Y-84.7
X86.8Y-88.3
X96.7Y-112.4
T6
X82.7Y-49.37
X82.7Y-59.53
X94.52Y-87.1
X104.68Y-87.1
T7
X103.8Y-110.6
X108.8Y-110.6
T8
X68.1Y-110.817
X73.1Y-110.817
X78.1Y-110.817
T9
X104.0Y-50.5
X104.0Y-60.66
X104.0Y-67.8
X104.0Y-77.96
M30
